<svg xmlns="http://www.w3.org/2000/svg" viewBox="0 0 155.38 86.41">
  <path d="M94.1 44.39c.16 0 .17-.11.17-.21a5.12 5.12 0 0 0 0-.68 2.33 2.33 0 0 1 1-2.13 9.32 9.32 0 0 1 4.15-2 23.7 23.7 0 0 1 10.4 0 8.41 8.41 0 0 1 4.66 2.42 1.86 1.86 0 0 1 .45 1.38v3.45c0 .42-.19.58-.67.59h-2.24l-20.28.11a20.79 20.79 0 0 1-6.94-.87 1.19 1.19 0 0 0-.83 0 16.07 16.07 0 0 1-5.17.92h-3.09a27.59 27.59 0 0 1-6.85-.71 2.27 2.27 0 0 0-1.1 0 35 35 0 0 1-7.52.88H26.58a2.3 2.3 0 0 1-.87-.14 1.78 1.78 0 0 1-1.19-1.74v-1.25c-.11-2.53 1.92-3.6 4.28-4.37a22 22 0 0 1 7.8-.8 17.82 17.82 0 0 1 5.1.87 8.15 8.15 0 0 1 3.47 2.12 1.14 1.14 0 0 1 .25.83v1a1.12 1.12 0 0 0 .9 1h.39l9-.12 6.14-.08a2.3 2.3 0 0 0 1.41-.42 1.56 1.56 0 0 0 .68-1.94 1.9 1.9 0 0 0-1.86-.93H51.22c-.89 0-.89 0-.89-.83v-1.1c0-.37.08-.41.46-.4h12.42a17.66 17.66 0 0 1 5.74 1.09 4.77 4.77 0 0 1 1.9 1.26 5.34 5.34 0 0 1 .88 1.85 1.45 1.45 0 0 0 1 .93 5.1 5.1 0 0 0 2.9.72 6.42 6.42 0 0 0 3.37-.7 1.27 1.27 0 0 0 .92-1.34c-.07-.93 0-1.87 0-2.81a.67.67 0 0 1 .51-.69 5.68 5.68 0 0 1 1.78-.34 13.8 13.8 0 0 1 4.06.21c.44.1 1 .19 1 .74-.08.78 0 1.56 0 2.34s.46 1.29 1.15 1.72a.48.48 0 0 0 .31.17 1.31 1.31 0 0 0 .53.29 6.46 6.46 0 0 0 4.84-.29zm-61.1.49a11.06 11.06 0 0 0 4.89-.26c.15 0 .14-.14.14-.24a2.09 2.09 0 0 0 .15-1.69 1.31 1.31 0 0 0-.59-.6 5.75 5.75 0 0 0-3-.49c-1.52 0-3 .9-2.48 2.58a.87.87 0 0 0 .89.7zm69.49-.18a9.8 9.8 0 0 0 2.42.09 8.11 8.11 0 0 0 2.45-.4h.13c.16-.63.57-1.23.19-1.89a1.32 1.32 0 0 0-.92-.76 6.33 6.33 0 0 0-3.78-.15 1.89 1.89 0 0 0-1.49 1.41 1.4 1.4 0 0 0 .98 1.7zM119.15 44.37v-4.16a.81.81 0 0 1 .53-.82 7.47 7.47 0 0 1 5-.45 6 6 0 0 1 1.5.55c.24.12.38.26.38.5s-.05.27-.05.4v5.3a1 1 0 0 1-.66 1 4.12 4.12 0 0 1-.72.27 8.26 8.26 0 0 1-5-.24c-.73-.28-1-.73-.91-1.42a3.72 3.72 0 0 0-.07-.93zM62 52.69l-1.15-.07a4.1 4.1 0 0 1 3.45-2.77 25.85 25.85 0 0 1 6-.21c.57 0 1.13.09 1.69.12s.55.06.26.45c-.06.07-.11.15-.16.22a5.32 5.32 0 0 1-3 1.77 23.39 23.39 0 0 1-3.83.43zM74.6 52.7a5.62 5.62 0 0 0-.7-.05c-.48 0-.46-.15-.32-.45a4.62 4.62 0 0 1 3.82-2.43 28.18 28.18 0 0 1 5.51-.13c.56 0 1.12.11 1.69.12s.48.15.25.42l-.18.25A5.28 5.28 0 0 1 82 52.11a21.08 21.08 0 0 1-4 .52c-1.16.04-2.28.04-3.4.07zM35 52.69l-1.09-.07a3.17 3.17 0 0 1 1.81-2.21 8.33 8.33 0 0 1 3.57-.8 43.52 43.52 0 0 1 5.82.15c.35 0 .34.14.19.34l-.22.33c-.08.08-.18.16-.26.25A5.11 5.11 0 0 1 42 52.2a23.39 23.39 0 0 1-3.83.43c-1.03.03-2.11.04-3.17.06zM53.42 36.58l-2.59.11a19.59 19.59 0 0 1 4.74-1.9 40.08 40.08 0 0 1 10.08-.86c5.64.11 11.27.12 16.91.07h.23c-.58.34-1.22.45-1.75.74a5 5 0 0 0-.52.14 31.22 31.22 0 0 1-8.13 1.63c-1.76.09-3.52.07-5.29.05-4.06-.06-8.12 0-12.18 0zM111.56 36.39a3.79 3.79 0 0 0-1.8.38 5.32 5.32 0 0 1 3.29-2.32 20.57 20.57 0 0 1 4.83-.48c4.39-.09 8.78-.14 13.16-.37.47 0 .93-.09 1.44-.13a14.34 14.34 0 0 1-1.26.88l-.47.23a15.06 15.06 0 0 1-3.82 1.47c-2.47.54-5 .38-7.51.57a32.8 32.8 0 0 1-3.28-.12c-1.53-.05-3.05-.17-4.58-.11z"/>
  <path d="M77.69 86.41C34.13 86.41 0 67.43 0 43.2S34.13 0 77.69 0s77.69 19 77.69 43.2-34.13 43.21-77.69 43.21zm0-79.41C39.37 7 7 23.58 7 43.2s32.37 36.21 70.69 36.21 70.69-16.58 70.69-36.21S116 7 77.69 7z"/>
  <path d="M21.14 68.89A70.69 70.69 0 0 0 28.68 73c12.54-5.68 28.86-9.18 46.44-9.18 18.78 0 36.12 4 48.95 10.36a77.33 77.33 0 0 0 7.68-3.8C117.7 62.1 97.69 57 75.12 57 53.94 57 35 61.5 21.14 68.89zM21.14 17.47a72.49 72.49 0 0 1 7.54-4.1c12.54 5.63 28.86 9.17 46.44 9.17 18.78 0 36.12-4 48.95-10.36a75.23 75.23 0 0 1 7.68 3.82c-14 8.27-34.06 13.37-56.63 13.37-21.18-.01-40.12-4.5-53.98-11.9z"/>
</svg>
