<svg xmlns="http://www.w3.org/2000/svg" viewBox="0 0 151.31 52.48">
  <path d="M75.47 5.69a62.71 62.71 0 0 1 6.42-3.51c9.24-3.74 18-2.66 26.08 3.18.49.35.79.46 1.34 0A25.3 25.3 0 0 1 125.11 0a26.2 26.2 0 0 1 3.42 52.17 25.52 25.52 0 0 1-18.82-4.8l-1-.7c-11 7.69-22 7.71-33.18 0a26.3 26.3 0 0 1-32.66.09c-2.32 1.26-4.43 2.67-6.74 3.64A26.18 26.18 0 1 1 22.29.33 25.54 25.54 0 0 1 42 5.34a1 1 0 0 0 1.41 0 26.17 26.17 0 0 1 31.84.18 1.62 1.62 0 0 0 .22.17zm-37.12 4.44A20.2 20.2 0 0 0 12.36 41c8.77 8.16 20.47 6.08 26 1.3-7.23-10.73-7.22-21.41-.01-32.17zM113 42.32a20.2 20.2 0 0 0 25.58-31.23c-8.58-7.52-20.13-5.73-25.58-.9 7.22 10.74 7.21 21.42 0 32.13zm-66 0a19.84 19.84 0 0 0 24.29 0q-10.8-16.09 0-32.17c-6.79-5.6-17.69-5.48-24.29 0q10.84 16.11 0 32.18zm57.29-32.19a19.87 19.87 0 0 0-24.38.08 26.31 26.31 0 0 1 0 32c7.06 5.72 17.85 5.49 24.39.05-7.19-10.66-7.2-21.34.02-32.12zm-61.64 4.5c-5.11 6.75-4.85 16.9 0 23.17a19.79 19.79 0 0 0 .03-23.16zm33 0c-5.11 6.71-4.84 16.94 0 23.13 5.09-6.5 4.93-16.82.01-23.1zm33 23.18c5.19-6.74 4.83-17.16 0-23.17a19.94 19.94 0 0 0-.02 23.2z"/>
</svg>
