<svg xmlns="http://www.w3.org/2000/svg" viewBox="0 0 139.56 108.06">
  <path d="M69.3 108.06c-17.89-.5-34.63-5.06-49.18-16.3C-5.44 72-6.81 40.52 17 18.7c27.19-25 78.56-24.92 105.72.1 23.71 21.85 22.3 53.39-3.33 73.08-14.73 11.28-31.63 15.83-50.09 16.18zM40.87 12.13c5.22 3.63 9.84 6.6 14.19 9.92 7.13 5.44 10 12.92 8.81 21.64-1.3 9.34-3.08 18.62-5 27.86s-6.65 16.37-14.74 21.29c-1.09.66-2.65 1-2.81 3.09 19.23 7.28 38.28 7.26 58.49-.63-10.66-5.38-17-13-19.08-23.66-1.66-8.28-3.08-16.64-4.66-24.92-2.36-12.33 2.2-21.44 12.75-27.88 3.19-1.95 6.21-4.18 10-6.75-19.7-7.29-38.4-7.37-57.95.04zM28.69 26.89a18.26 18.26 0 0 0-16.2 10c-5.28 10.59-5.43 21.3-.94 32.26 1.93 4.7 5.21 7 10.07 7.79 10 1.67 18.56-2.91 22.52-12.9 2.48-6.27 4.42-12.77 6.28-19.26 1.06-3.68.82-7.67-2.59-10a46.13 46.13 0 0 0-19.14-7.89zM131.18 54a36.51 36.51 0 0 0-3.56-16.23c-4.09-8.91-12.76-12.75-22.08-9.64a92.58 92.58 0 0 0-10.48 4.47c-5.62 2.66-7.56 6.86-5.78 12.81s3.77 12.11 5.91 18.07a21.06 21.06 0 0 0 8.37 10.86c10.09 6.56 22 2.65 25.73-8.57A32.27 32.27 0 0 0 131.18 54z"/>
</svg>
