<svg xmlns="http://www.w3.org/2000/svg" viewBox="0 0 144.28 85.5">
  <path d="M73.77 85.5c-19.38-.1-36.29-3.33-51.87-12A49.6 49.6 0 0 1 6.29 60.31c-8.68-11.39-8.35-25.14.84-36.1C14.43 15.5 24 10.2 34.41 6.38A108.17 108.17 0 0 1 76.35.11c16.41.68 32.24 4 46.62 12.42 7.58 4.45 14.17 10 18.2 18 4.73 9.46 4 18.65-1.64 27.44-5.18 8.14-12.81 13.48-21.31 17.65a96.23 96.23 0 0 1-34.9 9.28c-3.75.33-7.51.48-9.55.6zm-1.68-3a106.07 106.07 0 0 0 35.08-5.5c10-3.39 19.15-8.1 26.35-16 10.17-11.2 10.24-24.72.2-36-5.78-6.51-13.06-10.87-21-14.15C98.8 5 84.24 3 69.23 3.29A107.27 107.27 0 0 0 39 8.05c-11 3.48-21.09 8.49-28.88 17.33-9.04 10.28-9.39 23.06-.89 33.8 4.68 5.91 10.7 10.13 17.38 13.45 14.32 7.12 29.62 9.78 45.48 9.83z"/>
  <path d="M72.63 6.74c14.84.07 29.22 2.44 42.77 8.74a47.31 47.31 0 0 1 16.6 12.2c8 9.47 7.91 21.52-.26 30.88-6.84 7.87-15.82 12.34-25.55 15.44A112.6 112.6 0 0 1 64 78.65c-12-.83-23.69-3.23-34.71-8.25A49.7 49.7 0 0 1 14 60.09c-10.56-10.78-10.45-24.42.3-35 7.4-7.29 16.58-11.35 26.38-14.18 10.44-3.03 19.96-4.2 31.95-4.17zm11.1 58.59c-5-1.61-5.42-2.13-5.39-7.24.1-13.25.25-26.5.28-39.76 0-.82-.8-2.29-1.35-2.35a12.68 12.68 0 0 0-5.32.33 67.26 67.26 0 0 0-8.89 3.86 3.32 3.32 0 0 0-1.39 2.35c-.06.53.8 1.45 1.44 1.72 3 1.29 3.87 2.31 3.83 5.61-.11 9.41-.28 18.82-.42 28.23-.07 4.16-.6 4.94-4.48 6.5-1.75.7-.85 2.19-.88 3.3 0 .44 1 1.28 1.51 1.29q9.7.17 19.43 0c.55 0 1.32-.89 1.57-1.53a6.85 6.85 0 0 0 .06-2.31zm0-28.83c.71.06 1.15.13 1.6.13q17.4.19 34.8.36a8 8 0 0 0 8-6.48c0-.22-.18-.5-.42-1.14H90.67c-.13-1.61-.21-2.8-.31-4h-6.59zM16.38 29A46.41 46.41 0 0 0 20 34.45a4.75 4.75 0 0 0 3.14 1.35c12.12.22 24.24.33 36.36.46.71 0 1.43-.08 2.17-.12V29zm67.26 18.62c.93.06 2 .17 3 .17q13.77.1 27.53.18c4 0 7-2.75 7.53-7.26h-18.3c-5.94 0-11.88-.11-17.82-.06-.65 0-1.78.69-1.83 1.16a50.23 50.23 0 0 0-.11 5.81zm-60.39-7.3C24.41 45 27 47 31.7 47.06c8 .1 16 .32 23.94.33 7.31 0 5.92 1.63 6-6.29a3.86 3.86 0 0 0-.31-.78zm38.29 9.49c-.49 0-.66-.11-.77-.06a24.6 24.6 0 0 0-2.59 1.37c-5.61 3.7-11.54 5.82-18.44 4.61-2.52-.44-5.19-.07-7.83-.07.52 2.64 2.58 6.43 4.41 6.59 5.1.45 10.33.87 15.36.21 3-.4 5.74-2.81 8.53-4.44a2.77 2.77 0 0 0 1.27-1.83c.16-2.09.06-4.19.06-6.38zm51.25 6.69c-3.09 0-6-.16-8.78 0a16.82 16.82 0 0 1-12-3.36c-2.58-2-5.5-1.22-8.5-1.2v6.87a33.25 33.25 0 0 1 3.77 0 5.12 5.12 0 0 1 2.68.84 14.58 14.58 0 0 0 12 3.79 15.45 15.45 0 0 1 2.25.06c4.51.17 7.2-1.93 8.58-7z"/>
</svg>
