<svg xmlns="http://www.w3.org/2000/svg" viewBox="0 0 148.03 27.47">
  <path d="M37.46 13.74c2.3 0 4.52-3.08 4.52-6.87S39.76 0 37.46 0H0v7.08h28s1.83 2.08 0 3.74H0v16.65h37.46c2.3 0 4.52-3.07 4.52-6.87s-2.22-6.86-4.52-6.86zm-10.22 7.87H13v-5.2h14.24A2.39 2.39 0 0 1 29.31 19a2.39 2.39 0 0 1-2.07 2.61zM98 27.47H43.8V0h13.05v21.61h30.82a2.05 2.05 0 0 0 2.08-2.24c0-1.65-.93-2.6-2.08-2.6H65.16c-2.81 0-5.51-3.76-5.51-8.39S62.35 0 65.16 0h36.33v7.28H74a2.72 2.72 0 0 0 0 3.54h24c2.8 0 5.51 3.64 5.51 8.27s-2.71 8.38-5.51 8.38M143.51 27.47c2.3 0 4.52-3.07 4.52-6.87V0h-13.21v19.39a2 2 0 0 1-1.77 2.22H120.3a2 2 0 0 1-1.77-2.22V0h-13.21v20.6c0 3.8 2.21 6.87 4.51 6.87z"/>
</svg>
