<svg xmlns="http://www.w3.org/2000/svg" viewBox="0 0 101.61 136.49">
  <path d="M50.85 0a11.17 11.17 0 0 1 1 1.27Q62.94 16.15 74 31q9.91 13.31 19.81 26.62l7.55 10.15c.33.45.33.45 0 .89L76.43 102.2 52.76 134l-1.49 2c-.45.61-.45.61-.88 0q-3.55-4.76-7.09-9.52l-15.93-21.35-18.5-24.88L.33 68.78c-.48-.64-.4-.5 0-1q6.39-8.59 12.8-17.2L30.3 27.45 49.25 2 50.46.36c.1-.14.17-.31.39-.36zm-40.2 75.36C17.06 84 23.4 92.44 29.68 101c5.78 7.84 18.66 25.08 19.06 25.36v-50c0-1 .1-.9-.87-.9H10.65zM91 61.07L53.13 10.15A1.58 1.58 0 0 0 53 11v49.72c0 .16.12.44.43.41h36.86a1.64 1.64 0 0 0 .71-.06zm-80.32 0a1.64 1.64 0 0 0 .75.09h37c.22 0 .32-.1.31-.32s0-.22 0-.33V10.62c0-.14.08-.31-.15-.47Q29.67 35.59 10.7 61.07zM91.1 75.36H53.85c-.94 0-.85-.09-.85.83v49.38a1.46 1.46 0 0 0 .12.84zm-34.84-8h.11l.16.49c.33 1.2.67 2.4 1 3.61.09.33.23.47.58.45s.92 0 1.38 0 .48 0 .59-.5c.3-1.43.61-2.86.91-4.29.2-1 .4-1.92.61-2.9a17.31 17.31 0 0 0-1.88-.05c-.23 0-.31.12-.34.32-.07.41-.15.81-.22 1.22-.15.83-.3 1.65-.46 2.55a.6.6 0 0 1-.24-.39c-.29-1.07-.6-2.14-.88-3.22-.1-.35-.25-.52-.64-.49a11.42 11.42 0 0 1-1.17 0c-.52 0-.53 0-.66.52-.27 1.06-.53 2.12-.8 3.18 0 .14 0 .31-.22.37v-.18c-.19-1.1-.37-2.2-.57-3.29-.11-.59-.12-.59-.7-.6h-1.18c-.47 0-.48 0-.39.48.42 2.17.83 4.33 1.27 6.49.2 1-.05.89 1.11.89.44 0 .95.16 1.28-.08s.32-.83.44-1.26c.31-1.06.65-2.18.91-3.29zm-42.52.54l.43-.35a1.84 1.84 0 0 0 .57-2 1.68 1.68 0 0 0-1.44-1.25 2.89 2.89 0 0 0-.58-.08H8.79c-.36 0-.45.14-.44.46v6.82c0 .45 0 .46.5.46h3.08a8.08 8.08 0 0 0 1.63-.12 1.86 1.86 0 0 0 1.57-1.77 1.7 1.7 0 0 0-1.05-2zm21.46.79a.37.37 0 0 1 .23-.22 2.12 2.12 0 0 0 1.23-2.6 1.62 1.62 0 0 0-1.31-1.39 5.57 5.57 0 0 0-1.29-.18h-3.54c-.49 0-.5 0-.5.52v6.82c0 .44.12.42.43.41h1.44c.44 0 .46-.12.45-.46v-2c0-.22-.13-.53.15-.65s.5.12.72.25a1.07 1.07 0 0 1 .37.53c.33.66.67 1.32 1 2 .08.15.13.35.34.35a17.89 17.89 0 0 0 2.41 0 17.2 17.2 0 0 0-1.2-2.39c-.26-.41-.43-.85-.93-.96zm45.38-.09l.18-.12A2.18 2.18 0 0 0 82 65.86a1.7 1.7 0 0 0-1.34-1.36 5.66 5.66 0 0 0-1.3-.18h-3.47c-.49 0-.5 0-.5.52V71.65c0 .31.1.44.41.43h1.51c.25 0 .37-.09.35-.34s0-.35 0-.52v-2c0-.31.12-.39.41-.3a1.32 1.32 0 0 1 .82.7c.32.69.67 1.37 1 2 .09.17.15.38.4.38h2.39c-.61-1.2-.97-2.49-2.1-3.37zm5.42-.4v3.27c0 .59 0 .6.56.6h2.82a4 4 0 0 0 1.29-.18 2.75 2.75 0 0 0 1.94-1.8 6 6 0 0 0-.19-3.86 2.7 2.7 0 0 0-1.75-1.73 4.08 4.08 0 0 0-1.1-.18h-3.04c-.48 0-.49 0-.49.54zm-39.71-.71h-1.37c-.27 0-.42.07-.4.37s0 .61 0 .92.12.38.39.37.53 0 .79 0 .25 0 .31.17a.71.71 0 0 1-.27.8 2.32 2.32 0 0 1-.85.33 1.68 1.68 0 0 1-2-1.22 5.73 5.73 0 0 1 .14-2.47 1.42 1.42 0 0 1 1.14-1 1.31 1.31 0 0 1 1.43.39.7.7 0 0 0 .93.31 4.59 4.59 0 0 1 .51-.1c1.07-.22 1.06-.21.47-1.18A2.11 2.11 0 0 0 46 64.12a9.19 9.19 0 0 0-2.67 0A3 3 0 0 0 41 65.77a4.8 4.8 0 0 0-.29 3.87A3 3 0 0 0 43 71.81a5.67 5.67 0 0 0 4.8-.86.57.57 0 0 0 .28-.48v-2.62a.31.31 0 0 0-.36-.36c-.47.01-.93 0-1.39 0zm-20.08.72c0-.3 0-.61-.05-.91a3.37 3.37 0 0 0-2.63-3.07 4.69 4.69 0 0 0-2.14 0 3.39 3.39 0 0 0-2.72 2.62 6.25 6.25 0 0 0-.05 2.28 3.33 3.33 0 0 0 3.56 3h.78a3.36 3.36 0 0 0 2.5-1.27 3.68 3.68 0 0 0 .79-2.65zM72.05 72v-.19q-1.23-3.62-2.45-7.25a.42.42 0 0 0-.45-.3h-1.57c-.57 0-.61 0-.83.59l-2.37 6.45c-.07.2-.21.39-.13.63a.22.22 0 0 0 .11.05h1.11c.89 0 .89 0 1.16-.87v-.06a.43.43 0 0 1 .51-.38h1.31c.9 0 .9 0 1.15.89v.12a.34.34 0 0 0 .4.32z"/>
  <path d="M15.41 59l30.92-41.61h.12v41c0 .56 0 .57-.58.57H15.41zM55.42 118.8V78.56c0-.78-.08-.7.7-.7h29.14a1.32 1.32 0 0 1 .56 0c-.15.42-29.68 40.14-30.4 40.94zM11.52 70.35c-1 0-.89.11-.9-.87a2.17 2.17 0 0 0 0-.26c0-.3.08-.46.41-.43a5.65 5.65 0 0 1 1.36.08c.4.12.57.32.57.69a.67.67 0 0 1-.55.71 3.32 3.32 0 0 1-.89.08zM11.42 67.3c-.9 0-.8.06-.8-.81v-.32c0-.3.09-.45.41-.43s.61 0 .91 0a.72.72 0 0 1 .7.78.77.77 0 0 1-.76.74 3.38 3.38 0 0 1-.46.04zM33.31 65.87h.52a.73.73 0 0 1 .71.71.64.64 0 0 1-.57.74 4.55 4.55 0 0 1-1.17.09c-.26 0-.41-.09-.39-.38v-.26c.01-1.03-.11-.89.9-.9zM78.58 65.87h.54a.69.69 0 0 1 .75.71c0 .45-.13.64-.61.76a5.11 5.11 0 0 1-1.17.07c-.21 0-.32-.09-.31-.31s0-.22 0-.32c.01-1.04-.14-.9.8-.91zM88.44 68.09v-1.77c0-.28.12-.39.39-.39.94 0 1.72.3 1.81 1.55a5.17 5.17 0 0 1-.08 1.62 1.49 1.49 0 0 1-1.92 1.12c-.2-.06-.2-.21-.2-.36v-1.77zM21 67.94a3.41 3.41 0 0 1 .14-1.12 1.49 1.49 0 0 1 1.47-1.07A1.58 1.58 0 0 1 24 66.87a4.26 4.26 0 0 1-.14 2.57 1.29 1.29 0 0 1-1.23.91 1.26 1.26 0 0 1-1.31-.78 3.4 3.4 0 0 1-.32-1.63zM68.13 66.36l.87 2.57c-.06 0-.07.07-.09.07-1.59.19-1.6.19-1.16-1.34a6.14 6.14 0 0 1 .38-1.3z"/>
</svg>
