<svg xmlns="http://www.w3.org/2000/svg" viewBox="0 0 150.32 92.65">
  <path d="M79.78 92.65c-23-.53-40.63-3.74-56.67-13.14-9-5.28-16.8-12-20.75-21.89C-2.6 45.17.53 34 9.22 24.28 18.33 14.09 30.1 8.2 43 4.64c27-7.41 53.44-6.23 79.06 5.6A54.63 54.63 0 0 1 143.46 27c9.69 13 9.08 28.46-1.63 40.68-10 11.45-23.14 17.71-37.58 21.07-9.52 2.25-19.35 3.11-24.47 3.9zm-1.67-8.82a108.5 108.5 0 0 0 34.27-5.6c10.1-3.36 19.5-8 26.74-16.1 8.68-9.74 8.6-22.05-.12-31.77a48.35 48.35 0 0 0-16.58-11.92C95.89 6.65 68.62 6 40.93 13.55c-10.56 2.89-20.3 7.56-28.1 15.51C2.32 39.78 2.26 53.12 13 63.6a56.94 56.94 0 0 0 12.7 9.23c15.4 8.27 32.16 10.97 52.41 11z"/>
  <path d="M32.64 63.27v-8.11h12.73v-6.07H30.16v14h-8.44V29.48c.8-.06 1.65-.17 2.5-.17h23c2.66 0 6.65 3.6 6.78 6.23a52.91 52.91 0 0 1-.1 7.46c-.11 1.13-1 2.18-1.65 3.49 3.35 3.64 1.63 8.49 1.42 12.88-.07 1.39-3.37 3.54-5.35 3.75-5.09.51-10.32.15-15.68.15zm12.67-19.72v-5.88h-15v5.88zM128.87 63.29h-19.75V55.1h10.57c0-4.83.3-9.48-.15-14.06a4 4 0 0 0-4.46-3.52c-2.75.15-5.51 0-8.52 0v25.5h-8.87V29.3h21.14c6.6 0 10 3.45 10 10.06zM93.43 29.52c0 5.37.4 10.66-.24 15.82-.2 1.57-3.09 3.23-5.07 4-1.7.66-3.87.13-6.06.13V63h-9.87V41.32h5c6.1 0 6.1 0 6.1-6.24v-5.56zM57.83 29.42h9.79c.15.24.34.4.36.57.53 5.42 1.06 10.85 1.54 16.27a26.62 26.62 0 0 1-.13 3.11c-3.78-.17-7.73 1.42-10.46-2.44a4.64 4.64 0 0 1-1.06-2.3c-.09-4.94-.04-9.9-.04-15.21z"/>
</svg>
