<svg xmlns="http://www.w3.org/2000/svg" viewBox="0 0 115 62.12009"><title>daewoo</title><g id="Layer_2" data-name="Layer 2"><g id="Layer_1-2" data-name="Layer 1"><path d="M111.83767,17.46233A92.94692,92.94692,0,0,0,87.86833,7.40279c-9.65278-2.603-12.14732,1.41-18.16676,10.1951C64.1572,25.6897,60.45312,39.53237,59.903,41.667c-.00536.02073-.03678.00933-.03408-.01192C62.95305,17.66093,73.362,5.36919,73.362,5.36919A24.193,24.193,0,0,0,58.47613.0005H56.52387A24.193,24.193,0,0,0,41.638,5.36919S52.047,17.66093,55.1311,41.65505c.0027.02125-.02872.03265-.03408.01192-.55014-2.1346-4.25422-15.97727-9.79859-24.06908-6.01944-8.78513-8.514-12.7981-18.16676-10.1951A92.94692,92.94692,0,0,0,3.16233,17.46233c-4.55525,2.76569-3.49778,4.6366-1.13881,13.015s3.57913,17.0822,14.56054,23.50836S47.49471,62.12009,57.5,62.12009s29.93452-1.70822,40.91594-8.13438,12.20157-15.12995,14.56054-23.50836S116.39292,20.228,111.83767,17.46233ZM33.01877,52.75276C24.47441,50.18968,20.46148,46.82745,17.3975,43.167c-2.32851-2.78185-4.6366-9.51723-5.53138-14.39786s.22425-6.61077,3.82316-7.72766c4.71794-1.46419,10.57469.40672,10.57469.40672s22.939,5.206,25.62331,34.40844C51.88728,55.85662,41.15323,55.19288,33.01877,52.75276Zm70.11511-23.98364c-.89478,4.88063-3.20283,11.616-5.53138,14.39786-3.06394,3.66047-7.07691,7.0227-15.62127,9.58578-8.13442,2.44012-18.86851,3.10386-18.86851,3.10386C65.79707,26.65419,88.736,21.44818,88.736,21.44818s5.85675-1.87091,10.57469-.40672C102.90963,22.15835,104.02866,23.8885,103.13388,28.76912Z"/></g></g></svg>