<svg xmlns="http://www.w3.org/2000/svg" viewBox="0 0 319.28 60.37">
  <path d="M45.89 1.18H14.35a5.64 5.64 0 0 0-4 1.67l-8.69 8.67a5.7 5.7 0 0 0-1.66 4v31.33a11.34 11.34 0 0 0 11.34 11.33H49c15.67 0 25.66-12.65 25.75-28.29.09-15.79-13.07-28.71-28.86-28.71zm-1.31 46.17H19.87a5.66 5.66 0 0 1-5.67-5.66v-24A5.67 5.67 0 0 1 19.87 12h22.76a17.93 17.93 0 0 1 17.92 17.76c-.03 9.72-6.23 17.59-15.97 17.59zM92.34 1.18A11.34 11.34 0 0 0 81 12.52v35.83a11.34 11.34 0 0 0 11.34 11.33h45.33a2.83 2.83 0 0 0 2.83-2.83v-6.21a2.83 2.83 0 0 0-2.83-2.83h-42.3a16.49 16.49 0 0 1 0-12.38h42.3a2.83 2.83 0 0 0 2.83-2.83v-6.33a2.84 2.84 0 0 0-2.83-2.84h-42.3s-2.81-4.37 0-10.62h38.13L140.34 6a2.83 2.83 0 0 0-2-4.84zM148 56.85V8.52a8.51 8.51 0 0 1 13.86-6.61l41.47 33.61V4a2.84 2.84 0 0 1 2.84-2.84h8.7A2.84 2.84 0 0 1 217.71 4v47.85a8.51 8.51 0 0 1-13.86 6.61l-41.48-33.61v32a2.82 2.82 0 0 1-2.83 2.83h-8.71a2.83 2.83 0 0 1-2.83-2.83zM226.16 55.21l34.72-49.14a14.18 14.18 0 0 1 23.15 0l34.72 49.14a2.83 2.83 0 0 1-2.31 4.47H264a2.83 2.83 0 0 1-2.31-4.47l3.32-6.7a2.84 2.84 0 0 1 2.32-1.2h21.9a2.83 2.83 0 0 0 2.32-4.47l-16.39-22.57a2.83 2.83 0 0 0-4.63 0L243.6 58.48a2.82 2.82 0 0 1-2.32 1.2h-12.81a2.83 2.83 0 0 1-2.31-4.47z"/>
</svg>
