<svg xmlns="http://www.w3.org/2000/svg" viewBox="0 0 319.12 83.4">
  <path d="M66.22 18.45c4-2.74 12-10.8 29.73-15.42S129.19-.92 135 5s6.9 23.81-10.18 39.53S88.6 69.67 75 75.17s-26.71 4.76-32.75-.82c0 0-17.7 8.62-32 9S-1.33 78.81 6 78.81s22.44.49 50.46-28 34.85-37.15 46.8-38.17-1.53 4.69-10.08 13.76-32 34.09-39.08 39.15-3.87 6.67 3.22 6.23S94.82 68.6 122.83 27C141 0 111.3 4.2 100.88 8.49S82.73 16.5 75.33 25 64 34.94 61.64 30.51s.36-9.19 4.58-12.06zM166.78 27.61c-10.71-4.87-35.65 16.15-35.65 16.15-13.37 11.27-18.31 25-9.53 25.47s22-5.6 31-11.83 24.88-24.91 14.18-29.79zm-9.53 17c-7.84 7.28-14.39 15.2-27.22 17.24s4.33-13.19 8.86-17.24c0 0 7.32-6.51 15.36-9.5s10.85 2.21 3 9.49zM166.59 49.5s18.48-20.62 24.77-25.69 11-6.42 10.78-1.39 7.23-1.72 10.72-3.8 12.1-3.53 9.25 2.15 4.14 1.64 8.43-2.39 13.36-6.83 17.34-4.88 2.75 7.13-3.34 13.74-12.12 13-14 14.94-.53 4 2.56 2 20.54-14.84 30.51-22.25 13.08-10 15.33-11.31 3.67-1 4.7.77.6 3.32-7.22 9.33-14.49 11.44-16.59 13.1-.6 2.52.27 2.21 19.46-11.4 25.05-15.24S301.54 8 304.38 6.9s5.79-1.85 7.64 1.75-2.82 6.81-5.67 9.63-8 7.88-9.62 9.48-3 3.19.1 2.17 14.38-5.18 17.77-5.3 4.75 1.63 4.49 3.6-4 4.28-13.32 6c-23.83 4.41-40.84 19.69-51.53 31.35s-14.56 14.84-17.31 13.88.16-9.81 15-20.19 15.22-10.15 21-16.09 8.61-8.09 7.51-9.68-5.31 2.8-12.27 7.47S251.31 51.73 247 52.9c-2.35.64-3.37-.85-3.4-1.88a6.12 6.12 0 0 1 1-3.22c.59-.93 1-1.54.22-2.25s-1.16-.07-2.64.81-18.38 11.56-24.88 8.87.59-10.44 3.5-14.12 12-11.64 13.66-13.26 3.14-3.64.32-4.31-7.87 4.32-13.1 7.87a156.88 156.88 0 0 0-21.35 18.76c-5.75 6.28-10.95 11.46-16.93 11.49s.56-6 3.85-9.52 18-18.15 20.92-20.62 5.11-5.83-1.55-3.5-21 13.36-30.28 23.1-13.51 12.74-18 13.31c-2.49.31-4.86 1.08-4.75-.57s8.17-9.04 13-14.36z"/>
  <path d="M151.56 54.93L156 50l4.26-5.13 3.21 2.13a2 2 0 0 0-.22 2.67c.68.86 2.66.23 3.34-.15l1.28 2.63-3.94 5.77-3.53 2.43-2.4-1.92c.63-.72 1.27-1.75.42-2.73a2.35 2.35 0 0 0-3.24-.27zM120.35 55.93c-.07-1.88-2.82-1.37-3.71-1.33a18.76 18.76 0 0 0-7.22 2.2v-4.67l5.13-4.94 8-3.54-.21 3.06c-.55.6-1.31 1.94-.64 2.66s3 .09 5.11-1.63l.76 1.68-1.61 5-3.48 2.58-1 1.07-1.12-2.15"/>
</svg>
