<svg xmlns="http://www.w3.org/2000/svg" viewBox="0 0 85 97.78827"><title>farda</title><g id="Layer_2" data-name="Layer 2"><g id="Layer_1-2" data-name="Layer 1"><path d="M42.5,97.78827l-.62723-.15614C27.50548,94.05586,16.01063,86.12261,8.63148,74.69A53.67406,53.67406,0,0,1,0,46.32637V17.36144A13.72692,13.72692,0,0,1,10.93194,3.95555C19.75079,2.151,32.38613,0,42.5,0,52.61334,0,65.24894,2.151,74.06806,3.95555A13.72692,13.72692,0,0,1,85,17.36144V46.32637A53.67406,53.67406,0,0,1,76.36852,74.69c-7.37915,11.43266-18.874,19.36591-33.24129,22.94218Zm0-92.59534c-9.67935,0-21.94316,2.09387-30.52712,3.85012a8.5161,8.5161,0,0,0-6.77995,8.31839V46.32637c0,13.58125,7.878,38.46091,37.30707,46.107,29.42907-7.64606,37.30707-32.52572,37.30707-46.107V17.36144a8.51561,8.51561,0,0,0-6.77995-8.31813C64.44289,7.2868,52.17882,5.19293,42.5,5.19293Zm-.00007,12.57225a11.16614,11.16614,0,0,1-11.16611,11.1661A11.16611,11.16611,0,0,1,42.49993,40.09739,11.1661,11.1661,0,0,1,53.666,28.93128,11.16613,11.16613,0,0,1,42.49993,17.76518ZM25.28128,30.81582A14.35479,14.35479,0,0,1,10.92653,45.17056,14.35476,14.35476,0,0,1,25.28128,59.52531,14.35475,14.35475,0,0,1,39.636,45.17056,14.35478,14.35478,0,0,1,25.28128,30.81582Zm34.4373,0A14.35479,14.35479,0,0,1,45.36383,45.17056,14.35476,14.35476,0,0,1,59.71858,59.52531,14.35475,14.35475,0,0,1,74.07332,45.17056,14.35478,14.35478,0,0,1,59.71858,30.81582Z"/></g></g></svg>