<svg xmlns="http://www.w3.org/2000/svg" viewBox="0 0 125.44 124.63">
  <path d="M62.9 0c34.53.09 62.61 28.1 62.54 62.39s-28.25 62.32-62.9 62.24A62.6 62.6 0 0 1 0 62C.12 27.75 28.35-.09 62.9 0zm53.73 55.34c-.39-4.59-.7-9.18-1.19-13.75-1.1-10.23-5.57-18.38-14.65-23.77A74.73 74.73 0 0 0 68.47 7.3c-17.18-1.45-33 2.22-47 12.58-5.51 4.07-9.62 9.17-11 16A89 89 0 0 0 17 92.23c5.12 11.07 12.73 19.33 24.86 22.86a76.47 76.47 0 0 0 27.52 2.8 59.22 59.22 0 0 0 21-5.26c5.52-2.62 10.42-6 13.53-11.45C112 87 116.55 71.82 116.63 55.34z"/>
  <path d="M19 44.63c.2-4.1.19-8.23.64-12.31.57-5.18 3.59-8.6 8.44-10.48a87.65 87.65 0 0 1 25.28-5.31c12.1-.9 24.14-.64 35.9 2.73a56.64 56.64 0 0 1 9.12 3.59c5 2.45 7.26 7.07 7.39 12.29A248.6 248.6 0 0 1 105.2 61c-1.08 13.26-4.55 26-9 38.56a10.46 10.46 0 0 1-4.87 5.71 40.78 40.78 0 0 1-14.59 4.87 80.89 80.89 0 0 1-34.81-1.83 42.81 42.81 0 0 1-4.71-1.71 13.13 13.13 0 0 1-7.54-7.58A140 140 0 0 1 19 44.63zM64.8 88.7V65h7v23.7H77a9.36 9.36 0 0 0 .1-1V49.39a4.28 4.28 0 0 0-.38-1.8c-1.28-2.71-2.59-5.4-4-8.06-.25-.47-.85-1.08-1.3-1.09-3.81-.08-7.62-.05-11.5-.05V88.7zm-28.36.22V64.75H44V59h-7.49V44.18c2.81 0 5.46.07 8.1 0A1.94 1.94 0 0 0 46.09 43a34 34 0 0 0 .07-4.42h-15v50.34zm52.56-.1v-44.6h5v-5.61H78.3v5.57l5.18.25v44.39H89zm-40.48.07c.72.06 1.27.15 1.81.14 4 0 3.39.3 3.4-3.29V38.53H48.5z"/>
  <path d="M64.85 57.86v-13.5c3.45-1 3.88-.62 5.43 2.36 1.84 3.56 1.6 7.23 1.47 11.14z"/>
</svg>
