<svg xmlns="http://www.w3.org/2000/svg" viewBox="0 0 120 13.90376"><title>fidelity</title><g id="Layer_2" data-name="Layer 2"><g id="Layer_1-2" data-name="Layer 1"><polygon points="0 13.904 2.216 13.904 2.216 8.06 12.41 8.06 12.41 5.844 2.216 5.844 2.216 2.216 17.064 2.216 17.064 0 0 0 0 13.904"/><polygon points="44.469 13.904 61.533 13.904 61.533 11.688 46.685 11.688 46.685 8.06 56.879 8.06 56.879 5.844 46.685 5.844 46.685 2.216 61.533 2.216 61.533 0 44.469 0 44.469 13.904"/><polygon points="84.395 2.216 91.487 2.216 91.487 13.904 93.703 13.904 93.703 2.216 100.794 2.216 100.794 0 84.395 0 84.395 2.216"/><polygon points="66.15 0 63.934 0 63.934 13.904 77.119 13.904 77.119 11.688 66.15 11.688 66.15 0"/><rect x="19.50139" y="0.00011" width="2.21607" height="13.90365"/><rect x="79.66759" width="2.21607" height="13.90376"/><path d="M36.7867.00011H24.11833V13.90376H36.7867A5.5464,5.5464,0,0,0,42.32687,8.3636V5.54027A5.5464,5.5464,0,0,0,36.7867.00011ZM40.1108,8.3636a3.32773,3.32773,0,0,1-3.3241,3.32409H26.3344V2.21617H36.7867a3.32774,3.32774,0,0,1,3.3241,3.3241Z"/><path d="M117.78393.10875V3.26664a3.32773,3.32773,0,0,1-3.3241,3.3241h-5.76177a3.32774,3.32774,0,0,1-3.3241-3.3241V.10875h-2.21607V3.26664a5.54642,5.54642,0,0,0,5.54017,5.54017h1.93906v5.097h2.21607V8.80681h1.60664A5.54641,5.54641,0,0,0,120,3.26664V.10875Z"/></g></g></svg>