<svg xmlns="http://www.w3.org/2000/svg" viewBox="0 0 249.93444 155.34485">
  <g data-name="Layer 2">
    <path d="M119.57724 155.34172c-18.2125-.4098-38.193-3.09361-57.33668-10.42578-12.67763-4.85559-24.8151-10.80067-35.59171-19.16635-10.40043-8.07367-18.58078-17.91217-23.29261-30.40011C-2.18257 80.66977-.7354 66.59383 6.73366 52.95309 13.08275 41.35773 22.3649 32.59568 33.1807 25.282A136.74389 136.74389 0 0173.59637 7.0413 185.23924 185.23924 0 01117.96815.1036c18.98712-.54974 37.77364 1.0304 56.13785 6.13265 18.26657 5.07507 35.356 12.68466 50.21627 24.66343 10.69865 8.6241 19.02676 19.1161 23.20616 32.4125 4.8884 15.55214 2.16142 30.0516-6.66946 43.54991-7.72216 11.80361-18.21117 20.612-30.35554 27.49634a154.0401 154.0401 0 01-52.06263 18.144 232.87344 232.87344 0 01-38.86356 2.83929zm97.88463-96.04113a5.17369 5.17369 0 00-.29094-.92053 52.57566 52.57566 0 00-10.07849-13.2423c-10.38019-9.57-22.62579-15.94173-35.85188-20.48568a133.91654 133.91654 0 00-36.46787-6.97969 152.41758 152.41758 0 00-27.412.74474 159.219 159.219 0 00-36.7575 9.24487c-13.562 5.166-25.18765 13.12074-34.184 24.62516C25.281 66.53063 24.07924 83.09745 33.18926 98.36344c6.67179 11.18014 16.53074 19.07387 27.74489 25.22926a110.94111 110.94111 0 0025.18985 9.58423 168.08832 168.08832 0 0017.08566 3.294 135.51634 135.51634 0 0037.75277.49467c7.45211-.9277 14.723-2.551 21.44416-6.16335a25.5525 25.5525 0 0011.76671-12.08848c2.78763-6.20982 3.38843-12.49094-.6997-18.46729a21.70465 21.70465 0 00-10.64268-7.85081 47.16056 47.16056 0 00-16.77071-3.07833q-17.99689-.03238-35.99392-.00116-12.76224.00241-25.52448.00691a9.21849 9.21849 0 01-8.17811-4.06825 31.88514 31.88514 0 01-1.99945-3.14426q-5.5628-10.71264-11.05137-21.46375c-.75741-1.4801-.52139-1.7807 1.17738-1.766 10.09744.08763 20.19479.19772 30.29243.2451 8.41148.03947 16.82338-.01209 25.235.00347q27.87375.05154 55.7474.13661c8.0558.02831 16.11124.15329 24.167.18869 5.42622.02384 10.85281-.03048 16.27917-.05645.38294-.00179.76556-.05825 1.25061-.09766z" data-name="Layer 1"/>
  </g>
</svg>