<svg xmlns="http://www.w3.org/2000/svg" viewBox="0 0 143.81 94.87">
  <path d="M73 94.87c-4.37 0-8.48-.2-12.56-.61a99.36 99.36 0 0 1-27.36-6.46 67.59 67.59 0 0 1-16.48-9.33A45.25 45.25 0 0 1 4.12 63.92 34.75 34.75 0 0 1 .23 51.4a35.88 35.88 0 0 1 6.33-24.71A49.77 49.77 0 0 1 21 13a76.34 76.34 0 0 1 22.15-9.55A104.18 104.18 0 0 1 56.73.88 123.06 123.06 0 0 1 75.92.07a113.28 113.28 0 0 1 11.5.93 93.64 93.64 0 0 1 26.08 7.07 62 62 0 0 1 16.87 10.8 42 42 0 0 1 10.94 15.45 34.83 34.83 0 0 1 2.38 10.11 36 36 0 0 1-7.18 24.68 51.63 51.63 0 0 1-15.29 13.73 77 77 0 0 1-20.39 8.52 99.34 99.34 0 0 1-14 2.67 122.29 122.29 0 0 1-13.83.84zm-.4-4.13c2.79-.13 5.59-.21 8.38-.4a86.14 86.14 0 0 0 10.84-1.5 72.45 72.45 0 0 0 20.82-7.38A48.87 48.87 0 0 0 127.79 69c5.87-7.43 8.66-15.81 7.64-25.33a32.26 32.26 0 0 0-2.94-10.4 40.77 40.77 0 0 0-12.43-15A63.28 63.28 0 0 0 99.41 8 91.08 91.08 0 0 0 80.1 4.52a111.82 111.82 0 0 0-14.53-.17A96.18 96.18 0 0 0 52.26 6a74.21 74.21 0 0 0-19.88 6.74 49.82 49.82 0 0 0-15.52 12C10.6 32.13 7.49 40.62 8.31 50.4a31.42 31.42 0 0 0 2.18 9.11A38.67 38.67 0 0 0 21 74.15a57.83 57.83 0 0 0 16.72 10.17 85.89 85.89 0 0 0 23.79 5.78c3.67.39 7.36.57 11.07.64z"/>
  <path d="M72.73 24.37a13.57 13.57 0 0 1 1.41.54c2.1 1.08 4.19 2.2 6.31 3.27 4.63 2.35 9.28 4.67 13.92 7l1.44.72a1.23 1.23 0 0 1 .71 1.16c.12 3.84.26 7.67.39 11.51.08 2.36.13 4.71.2 7.07a17.58 17.58 0 0 0 2.1 8.22 11.56 11.56 0 0 0 10.87 6.29 15.6 15.6 0 0 0 11.69-5.39 23.29 23.29 0 0 0 5.73-12.36 32.21 32.21 0 0 0 .32-8.2 28.58 28.58 0 0 0-2.42-9.2 35.9 35.9 0 0 0-13.18-15.3 63.18 63.18 0 0 0-17.38-7.89 79.14 79.14 0 0 0-13.38-2.73 73.1 73.1 0 0 0-12.64-.29c-2.61.16-5.22.32-7.81.64a69.43 69.43 0 0 0-23.5 6.71 43.81 43.81 0 0 0-15.09 12.13 30 30 0 0 0-6.22 14.15 29 29 0 0 0 2.52 17.39 18.56 18.56 0 0 0 10.39 9.64 14 14 0 0 0 6.08.73 11.26 11.26 0 0 0 6.81-2.9 13 13 0 0 0 4.24-7.73 64.25 64.25 0 0 0 .68-8.66q.28-7 .54-14a.82.82 0 0 1 .51-.81q10.22-5.14 20.4-10.33c.71-.36 1.4-.77 2.11-1.13s.74-.17.78.45v45.39a29.89 29.89 0 0 1-.87 7.77A9.18 9.18 0 0 1 64 85a24.74 24.74 0 0 1-9.1.94c-6.06-.33-11.75-2.16-17.38-4.24a47.19 47.19 0 0 1-12.22-6.45A36.16 36.16 0 0 1 11.55 55a32 32 0 0 1-.89-11.11 31.13 31.13 0 0 1 5.84-15.57 46.15 46.15 0 0 1 11.4-10.86A66 66 0 0 1 48.13 8.4 83.53 83.53 0 0 1 61.8 5.86a96.32 96.32 0 0 1 14.61-.37 91.08 91.08 0 0 1 21.86 3.68 64.13 64.13 0 0 1 17.6 8.12 42.9 42.9 0 0 1 12.72 13.08 28.3 28.3 0 0 1 3.85 9.41 38.61 38.61 0 0 1 .55 4.56 42.32 42.32 0 0 1-.05 6.94 28.93 28.93 0 0 1-4.75 13.6 43.1 43.1 0 0 1-19 15.74 62.94 62.94 0 0 1-15.37 4.75 37.7 37.7 0 0 1-9.89.45 16 16 0 0 1-6.18-1.76 8.8 8.8 0 0 1-3.9-4.78 15 15 0 0 1-1-5.33q-.12-7-.13-14V25.03z"/>
</svg>
