<svg xmlns="http://www.w3.org/2000/svg" viewBox="0 0 133.47 133.47">
  <path d="M85.35 66.61a1.42 1.42 0 0 1 .35.11 3.12 3.12 0 0 0 3.79-.79c.51-.51 1-1 1.57-1.48 1.54-1.36 2.53-1.42 4.14-.14 1.1.88 2.12 1.86 3.15 2.83a16.23 16.23 0 0 0 4.14 3.23 2.32 2.32 0 0 0 2.47-.19 5.17 5.17 0 0 0 1.93-3.32c0-.12-.06-.26-.13-.56-.5.58-.89 1.07-1.32 1.53a2 2 0 0 1-2.5.47 5 5 0 0 1-1.36-.89c-1.37-1.4-2.67-2.87-4-4.26a29.93 29.93 0 0 0-3.13-2.94c-1.93-1.47-3.52-1.12-4.81.91-.54.83-1 1.72-1.58 2.52a2.4 2.4 0 0 1-3.2.83c-1.06-.38-1.41-1.26-1.87-2.09a13.31 13.31 0 0 0-6-5.81 23.56 23.56 0 0 0-6.86-1.85 12.81 12.81 0 0 1-4.4-1.26 7.75 7.75 0 0 1-2.59-2 28.91 28.91 0 0 1-2.57-4.58c-.65-1.34-.31-2 1-2.68.38-.17.44-.38.14-.67a12.9 12.9 0 0 0-1.08-1c-1.07-.8-2.13-1.6-3.24-2.33S55 38.72 53.81 38c-.52-.31-1.06-.56-.74-1.37a.84.84 0 0 0-.25-.76 18.62 18.62 0 0 0-2.16-1.25 27.34 27.34 0 0 0-2.58-1c-1.27-.46-2.67-.57-3.75-1.5-.34-.28-.55-.51-.39-1 .06-.18-.15-.64-.27-.66a24.66 24.66 0 0 0-2.58-.18c-.16 0-.33.23-.49.35a3.67 3.67 0 0 0 .42.52c.17.14.52.2.54.33.16.91.94 1.1 1.59 1.4C45.59 34 48 35 50.49 36.11c.49.21.76.41.35 1a1.1 1.1 0 0 0 .27 1.59c.45.38 1 .67 1.47 1s1.13.82 1.7 1.24c-.42.12-.85.1-1 .31-.78.82-.68 1.17.35 1.7a7.4 7.4 0 0 0 .91.5c1.26.42 2.53.83 3.81 1.2a1.57 1.57 0 0 1 1.26 1.15 4.15 4.15 0 0 0-3.68-.8 2.43 2.43 0 0 1-3-1.15c-1.22-1.59-2.4-3.23-3.76-4.69a59.65 59.65 0 0 0-5.21-5 5.49 5.49 0 0 0-5.6-1 10 10 0 0 1-2 .42c-.22 0-.63-.13-.68-.28-.24-.85-.64-.53-1.08-.21a1.54 1.54 0 0 1-.4.14c.22-1 .22-1-.47-1.37.57-1.09-.1-1.92-.7-2.74-.13-.17-.45-.21-.68-.31-.09.22-.28.46-.24.65a14.57 14.57 0 0 0 .71 2.63c.21.49.24.77-.14 1.16a5.7 5.7 0 0 0-1.82 4.17 2.31 2.31 0 0 1-.37 1.19c-1.08 1.66-2.14 3.34-3.33 4.92a2.87 2.87 0 0 0-.27 3c.07.17.45.31.69.32a17.31 17.31 0 0 1 2-.05 2 2 0 0 0 2.3-1 3.26 3.26 0 0 1 .85-1c1.43-1 2.9-2 4.34-3a5.92 5.92 0 0 0 2.53-4.67c.09-1.34.28-1.42 1.4-.66a1.08 1.08 0 0 1 .24.18c1.26 1.32 2.54 2.63 3.79 4a9.11 9.11 0 0 1 .76 1.08l-.1.06-3.28-3-.23.16c.05.23.1.45.16.68.32 1.35.66 2.69.93 4.05.06.26-.07.77-.24.83a2.25 2.25 0 0 1-1.18 0c-.22-.06-.38-.36-.56-.56s-.37-.56-.63-.71a2.15 2.15 0 0 0-.82-.11 2.17 2.17 0 0 0 .17.78 9.14 9.14 0 0 1 1.47 3.85c.09.82.34 1.63.49 2.45a.77.77 0 0 1-.12.58 6.34 6.34 0 0 1-.86.73c-.55-.61-.93-.33-1.36.14a4.18 4.18 0 0 0-.74 3.59c.05.45.35.57.82.44a2.27 2.27 0 0 1 1.1 0 3 3 0 0 0 3.08-.42c.45-.4.65-.25.83.26a7.12 7.12 0 0 0 .76 1.6 1 1 0 0 0 .87.31c1.82-.45 3.62-1 5.43-1.48.62-.17 1.25-.3 1.86-.5.19-.06.48-.42.45-.48-.4-.68.06-1.22.31-1.74a3 3 0 0 1 1.82-1.75 1.06 1.06 0 0 1 .8.15c.13.12 0 .5 0 .75-.07.68-.2 1.36-.25 2 0 .44.07.89.07 1.33 0 .83-.17 1-1 1a32.33 32.33 0 0 0-9.3.93c-1.63.39-2.52.79-2.58 2.82v2a1.31 1.31 0 0 1-.35 0C41.91 61.63 40 61 39 59.12c-.33-.61-.8-1-1.55-.61 0 0-.15-.08-.35-.2l.73-.36a12.1 12.1 0 0 0 1.17-.61c.12-.08.14-.32.21-.49-.15-.06-.32-.19-.46-.16-1.77.43-3.56.85-5.31 1.36a1.36 1.36 0 0 0-.83.86 2.94 2.94 0 0 0 .86 2.92c3.08 2.6 6.18 5.19 9.24 7.83a3.88 3.88 0 0 0 2.61.86 3.16 3.16 0 0 0 .72-.18v-.27c-.32-.11-.65-.2-1-.34a3.88 3.88 0 0 1-.53-.4 2.06 2.06 0 0 0 .55-.23c.24-.17.56-.36.65-.61a2.89 2.89 0 0 0 0-1.1.72.72 0 0 0-1-.72 12.53 12.53 0 0 1-1.9.38 2.27 2.27 0 0 1-1.37-.29A27.19 27.19 0 0 1 38.19 64a4 4 0 0 1-.92-2c-.13-.7.56-1 1.22-.68 1.41.71 2.84 1.4 4.27 2.07a3.78 3.78 0 0 0 1.39.42 1.45 1.45 0 0 1 1.21.56 18.94 18.94 0 0 1 2.91 5.49c.17.4.37.92.71 1.1 1.42.73 2.89 1.4 4.38 2 .77.3 1.07 0 .91-.87a24.42 24.42 0 0 0-.58-2.67 1.15 1.15 0 0 0-.82-.57 6.14 6.14 0 0 0-1.48 0c-1.25.06-1.27.06-1.53-1.15a3.39 3.39 0 0 1 0-.84 5.05 5.05 0 0 1 .78.11c1.39.44 2.76 1 4.18 1.32 3.4.8 6.82 1.52 10.24 2.24a1.31 1.31 0 0 1 1.16 1.3 17.31 17.31 0 0 0 2.47 6.88 16.76 16.76 0 0 0 5.67 5.15 13.53 13.53 0 0 1 5.37 5.52c.94 2 1.85 4 2.8 6a3 3 0 0 0 .87 1.07c.75.56 1.58 1 2.36 1.54a2.25 2.25 0 0 0 1.85.32c1.63-.36 1.74-.6.91-2-.61-1.09-.69-1.13-1.86-.81-1.48.41-2.24.18-3.05-1.07-1-1.56-2-3.12-2.91-4.76a19.1 19.1 0 0 0-7-7.84 13.43 13.43 0 0 1-3-2.59c-1.92-2.13-2.83-4.8-3.65-7.48-.17-.55.1-.78.58-.74s1.18.18 1.77.27a4.8 4.8 0 0 1 3.79 2.88c.81 1.68 1.62 3.35 2.51 5a8.61 8.61 0 0 0 4.11 3.75 11.32 11.32 0 0 1 5.85 5.75c1.22 2.62 2.55 5.21 4 7.74 1 1.78 2.41 3.1 4.72 2.81a6.55 6.55 0 0 1 .89 0c1.68 0 1.67-.19 1.14-1.73s-.83-1.65-2.33-1.12c-2 .72-2.88.6-3.7-.79-1.31-2.23-2.59-4.47-3.72-6.78s-2.43-4.74-5-6.11a12.92 12.92 0 0 1-5.34-5.84A27.47 27.47 0 0 0 72 70.07a4.81 4.81 0 0 0-4-1.76 36.43 36.43 0 0 1-12.41-1.57c-2-.53-3.91-1.25-5.85-1.93-.21-.07-.38-.41-.47-.67a7.67 7.67 0 0 1-.27-1.08h-.26c-.3 1.93.44 3.79.53 5.72a2.17 2.17 0 0 1-.45-.65c-.6-1.44-1.21-2.88-1.76-4.34a5.21 5.21 0 0 1-.37-1.73 1.46 1.46 0 0 1 .49-1.06 5.17 5.17 0 0 1 3.35-1.24c1.21 0 2.42.07 3.63.17 1.42.11 2.84.25 4.26.43s1.86-.11 2.16-1.48a18.81 18.81 0 0 0 .19-2c0-.42.1-.84.18-1.45a9.55 9.55 0 0 1 1.71 4.8c1-1.5.43-3.2.71-4.77.72.66 1.37 1.3 2.06 1.88a3.17 3.17 0 0 1 1.28 3.32 16.4 16.4 0 0 0-.3 1.84 2.2 2.2 0 0 0 1.49 2.71q1.89.87 3.78 1.71a5.93 5.93 0 0 1 2.8 2.68c.94 1.76 1.67 3.65 2.54 5.45 1.07 2.18 2.19 4.35 4.44 5.61.74.42 1.46.88 2.36 1.43l-.41-1 .47.29c1 .83 2.11 1.63 3.12 2.51a2.3 2.3 0 0 1 .48 1 11.21 11.21 0 0 1 .22 1.21c.86-1.07.81-2.11 0-2.75a9.17 9.17 0 0 1-3.11-10.68 9.82 9.82 0 0 0 .5-4.83c-.06-.4 0-.81-.08-1.22a1.36 1.36 0 0 1 .34-.01z"/>
  <path d="M36.51 32.82a2.08 2.08 0 0 0 .75 0c1-.41 2.65-3.28 2.58-4.36l-.13-.12c-.74.32-1.52.66-2.32 1-.2.08-.5.18-.65.09-1-.59-1.92-.32-2.2.76a4.38 4.38 0 0 0 0 1.53c0 .08.36.21.48.16s.35-.36.56-.48c.9-.53 1.82-1 2.74-1.55l.14.2c-.6.67-1.23 1.33-1.8 2-.13.17-.1.51-.15.77z"/>
  <path d="M66.74 0a66.74 66.74 0 1 0 66.73 66.74A66.74 66.74 0 0 0 66.74 0zm0 127.9a61.17 61.17 0 1 1 61.16-61.16 61.24 61.24 0 0 1-61.16 61.16z"/>
  <path d="M66.74 7.66a59.08 59.08 0 1 0 59.08 59.08A59.14 59.14 0 0 0 66.74 7.66zm29.55 101.4c-1.86 1.56-11.24 5.06-25.37 5.06h-8.36c-14.14 0-23.52-3.5-25.38-5.06s-11.66-8.32-14.12-35.36c-1.34-25.91-3.79-37.91 5.36-46.17s28.12-8.71 31.9-8.71h12.83c3.78 0 22.75.45 31.9 8.71s6.7 20.26 5.36 46.17c-2.41 27.04-12.26 33.8-14.12 35.36z"/>
</svg>
