<svg xmlns="http://www.w3.org/2000/svg" viewBox="0 0 129.48 105.38">
  <path d="M58.7 0c17.5.11 30.28.27 43 1.87A71.26 71.26 0 0 1 112.54 4c9.28 2.69 14.53 9.06 16 18.53 1 6.48 1 13 .88 19.56a201.17 201.17 0 0 1-3.74 37.21 64 64 0 0 1-2.65 9.07c-2.46 6.86-7.47 11-14.32 13.22a70.27 70.27 0 0 1-16.27 2.79 407.29 407.29 0 0 1-49.41.4 99.74 99.74 0 0 1-19.32-2.35 31.16 31.16 0 0 1-8.68-3.39 21.31 21.31 0 0 1-8.87-11.18 73.47 73.47 0 0 1-3.65-15.54A214.31 214.31 0 0 1 .3 28.78a51.22 51.22 0 0 1 1.18-8.72c2-8.64 7.66-13.82 16-16.25A74.71 74.71 0 0 1 34 1.22C43.82.64 53.61.25 58.7 0zm6.22 4c-8.7.39-17.41.68-26.1 1.2a87.69 87.69 0 0 0-16.59 2.29c-8.34 2.13-13.29 7.41-14.56 16-.47 3.19-.7 6.42-.88 9.65a194 194 0 0 0 1.13 32 112.25 112.25 0 0 0 3.24 18c2.48 8.78 8.06 14.17 17.09 15.57 5.7.88 11.45 1.5 17.2 1.83a335 335 0 0 0 41.8-.18 131 131 0 0 0 15.31-2c7.56-1.45 12.68-6 15.09-13.38a59.81 59.81 0 0 0 1.78-6.28 184.14 184.14 0 0 0 3.46-35.7 118.58 118.58 0 0 0-1.07-19.66C120.54 15.26 116 9.9 108 7.75A68.28 68.28 0 0 0 99 6C87.66 4.57 76.3 4.25 64.92 4z"/>
  <path d="M103.51 9.54c-.25 4-.47 7.77-.71 11.53-.63 9.78-1.22 19.57-1.91 29.34-1 14.34-2.12 28.67-3.18 43v.44c-.22 2.88-.22 2.92-3.07 3.14-3 .22-6.09.33-9.13.55-.79.06-1-.23-1.24-1-1.32-4.79-2.65-9.58-4-14.35a29.62 29.62 0 0 0-1.61-3.92 8 8 0 0 0-6.44-4.78 46.72 46.72 0 0 0-14.74 0c-3 .48-5.41 2-6.47 4.87-1.65 4.45-3 9-4.46 13.52-.51 1.62-.84 3.3-1.32 4.94-.08.27-.51.66-.76.64-4-.23-8-.53-12-.81a3.79 3.79 0 0 1-.59-.22q-3-43.24-6-86.95c3-.19 5.85-.39 8.67-.51.21 0 .57.56.65.9 1.23 5.49 2.34 11 3.67 16.47Q42.08 39.7 45.57 53a26.26 26.26 0 0 0 2 4.93A12.78 12.78 0 0 0 57.18 65a46.25 46.25 0 0 0 14.43.12 13.12 13.12 0 0 0 11.22-9.26C84.5 51 85.92 46 87.13 41c2.47-10.19 4.75-20.42 7-30.66.26-1.19.7-1.51 1.86-1.39 2.48.28 4.94.41 7.52.59z"/>
</svg>
