<svg xmlns="http://www.w3.org/2000/svg" viewBox="0 0 156.15 27">
  <path d="M90 6.8V0h23.48A6.81 6.81 0 0 1 120 8.44a6.66 6.66 0 0 1-4.34 4.8c-5 1.82-10 3.6-15.08 5.39-.58.21-1.17.39-1.73.64a.87.87 0 0 0-.48.52c-.05.33.35.61.71.62h21V27H95.1a5.73 5.73 0 0 1-3.58-1.25 6.5 6.5 0 0 1-2.69-6.57 6.59 6.59 0 0 1 4.58-5.37q8.07-2.93 16.15-5.82c.34-.12.66-.28.57-.7s-.44-.49-.82-.49H90zM46.38 0v6.8H26.86a.56.56 0 0 0-.59.49.54.54 0 0 0 .4.64l2.73 1c4.59 1.65 9.17 3.29 13.75 5a6.8 6.8 0 0 1-.41 12.94 3.51 3.51 0 0 1-1 .16H16.33v-6.59h20.74c.38 0 .8.07.92-.45s-.09-.58-.69-.8l-16.41-5.88a6.69 6.69 0 0 1-4.63-5.45A6.78 6.78 0 0 1 21.94.1a9.87 9.87 0 0 1 1.22-.1h23.22zM52.82 0h8.82c.41 0 .51.12.51.52v17a2.75 2.75 0 0 0 2 2.77 3.39 3.39 0 0 0 .78.08h6.52a2.7 2.7 0 0 0 2.79-2.6v-.53V.46c0-.41.11-.51.51-.51h8.28c.38 0 .51.08.51.48v18.63a7.86 7.86 0 0 1-5.82 7.7 4.53 4.53 0 0 1-1.21.17H60.39a6.72 6.72 0 0 1-3.82-1.11 7.52 7.52 0 0 1-3.7-6.38c-.06-2.19 0-4.38 0-6.56V0zM134.76.05v17.39a4.69 4.69 0 0 0 .06.92 2.41 2.41 0 0 0 2.41 2.05h7.09a2.63 2.63 0 0 0 2.53-2.66V.05h9.26v19.08a7.86 7.86 0 0 1-5.83 7.69 4.51 4.51 0 0 1-1.16.16h-16.75a6.12 6.12 0 0 1-3.5-1.28 7.86 7.86 0 0 1-3.43-6.78V.47c0-.27 0-.47.37-.47h8.63a2.39 2.39 0 0 1 .32.05zM0 0h8.87c.58 0 .58 0 .58.56v26.4H0z"/>
</svg>
