<svg xmlns="http://www.w3.org/2000/svg" viewBox="0 0 100 88.17969"><title>jmc</title><g id="Layer_2" data-name="Layer 2"><g id="Layer_1-2" data-name="Layer 1"><path d="M99.87641,36.51755c.00868-1.659.03515-3.34448.06079-4.9745a125.43055,125.43055,0,0,0-.63356-18.61461,10.07493,10.07493,0,0,0-2.45357-5.419,12.39518,12.39518,0,0,0-6.96538-3.88788c-4.287-.95533-8.559-1.73583-12.697-2.31981C74.52173.92552,71.76492.75038,69.09889.581,68.33837.5327,67.57807.48439,66.81859.43163,65.6436.35,64.43707.31427,63.27025.27976,62.544.25827,61.793.236,61.05167.20294A3.81141,3.81141,0,0,1,60.21341.0474C60.15087.03055,60.09059.01432,60.03311,0h-21.832c-.07506.0164-.14991.03456-.22487.0526a4.66515,4.66515,0,0,1-.88737.15052C36.36467.23677,35.631.25834,34.9216.27918c-1.215.03571-2.47146.07265-3.69112.17153-2.14465.17388-4.32653.42455-6.43644.667q-.66127.07594-1.32232.1513-.46137.05235-.92293.10323c-1.487.16518-3.02469.336-4.50963.58958-1.807.30861-3.64077.68517-5.41426,1.04932q-.88428.18159-1.76874.361A12.28855,12.28855,0,0,0,1.79844,9.95169C.3563,12.722.233,15.71634.10238,18.88645c-.014.33677-.02781.67313-.04332,1.00873-.12654,2.73913-.02492,5.55288.07341,8.274.03246.89605.06585,1.82263.09087,2.73512.09874,3.61078.22156,8.10449.43433,12.3984.13089,2.64339.34231,4.9666.64627,7.10241.408,2.86643.92531,6.2547,1.669,9.65178q.24115,1.10115.47682,2.20576A105.88362,105.88362,0,0,0,6.3335,73.62883c1.68965,5.04184,5.32183,8.62657,10.79565,10.65463,5.11258,1.89417,10.62619,2.40255,15.95826,2.89421.87186.0804,1.7735.16353,2.66025.25146,2.47115.245,5.39027.51013,8.30454.61859,2.35215.08757,4.64972.132,6.8289.132,1.098,0,2.19325-.01122,3.25545-.03334,3.62939-.07563,7.304-.30411,10.46336-.51234a51.178,51.178,0,0,0,6.01359-.663c3.079-.57,6.11678-1.27266,9.484-2.06546a20.22088,20.22088,0,0,0,7.32826-3.0046c3.05084-2.16526,5.31481-5.39074,6.92123-9.8608a71.67039,71.67039,0,0,0,2.87829-12.73709q.17833-1.0951.36009-2.18837c.48251-2.87167.81025-5.83124,1.127-8.69335q.08251-.74542.16584-1.49045c.10173-.90541.21825-1.82354.331-2.71142A64.608,64.608,0,0,0,99.87641,36.51755Zm-86.194,31.46807c-.05459.0367-.12.08059-.19995.13843l-1.00844.73-.30871-1.206A153.43832,153.43832,0,0,1,7.401,20.9608l.10452-2.00935,1.36388,1.4792c.42192.45752.82368.89055,1.21087,1.30778.81427.87761,1.58337,1.70654,2.33065,2.53914,1.49063,1.66062,3.032,3.3778,4.53071,5.12757,2.57206,3.00274,5.23179,6.10775,7.80043,9.22618,1.508,1.83075,2.96793,3.73686,4.33915,5.66544a5.82447,5.82447,0,0,1-.27967,7.14087C27.07723,53.47619,25.25359,55.47755,23.49,57.413c-2.43693,2.67451-4.92824,5.37978-7.33767,7.996q-1.04571,1.13546-2.0911,2.27123A1.95313,1.95313,0,0,1,13.68244,67.98562ZM71.5446,80.32881a144.65618,144.65618,0,0,1-22.60407,1.86613,114.2426,114.2426,0,0,1-20.77164-1.84383l-1.89-.34546,1.53-1.16212c.32722-.24854.6443-.49561.95095-.73456.66178-.51562,1.28675-1.00262,1.95173-1.45905,2.0634-1.41611,4.16608-2.84753,6.19959-4.2318,2.89059-1.96779,5.87961-4.00257,8.80256-6.02541A7.50882,7.50882,0,0,1,50.025,64.95543,9.37807,9.37807,0,0,1,55.30813,66.83c3.5443,2.40963,7.08178,4.94718,10.50285,7.40117q1.41573,1.01555,2.83249,2.0292c.72.51443,1.41619,1.07127,2.15313,1.66083.36237.28979.73694.58949,1.1387.90391l1.53509,1.20146ZM83.931,75.28263c-.29951.2122-.59427.41755-.88458.61973-.673.46878-1.30867.91156-1.9202,1.38189a1.77944,1.77944,0,0,1-1.09693.42089,1.85722,1.85722,0,0,1-1.26949-.599q-.86628-.82952-1.72987-1.66248c-2.01542-1.94049-4.09939-3.94705-6.20992-5.84174-3.1196-2.80065-6.35116-5.58811-9.47633-8.28379q-.90971-.78474-1.81909-1.5699c-.76848-.66382-1.56952-1.32374-2.3443-1.96195-.96976-.799-1.97262-1.62513-2.93432-2.47707a6.21739,6.21739,0,0,0-4.18334-1.58256,7.42932,7.42932,0,0,0-4.8049,1.83436c-3.26278,2.7924-6.44937,5.52869-9.56379,8.30356-3.08517,2.74872-6.17654,5.59984-9.16617,8.35709l-.62011.57186c-1.42343,1.31262-2.89639,2.72246-4.63545,4.43684a1.79391,1.79391,0,0,1-1.24943.61435,1.64113,1.64113,0,0,1-1.01971-.3885c-.61887-.47933-1.25563-.94787-1.92971-1.444-.29362-.21608-.595-.43782-.90629-.66883l-.86318-.64056.82472-.68939c.33373-.279.65434-.54841.96656-.81081.66695-.56051,1.29678-1.08993,1.93561-1.612q1.40316-1.1469,2.81191-2.28731c1.25977-1.02229,2.56245-2.07939,3.83565-3.12659q.70918-.58319,1.41961-1.165c1.91524-1.57018,3.89561-3.1938,5.79627-4.83674q.5555-.48024,1.11462-.958a43.80836,43.80836,0,0,0,7.7721-7.88981c2.28164-3.28278,2.22395-5.78741-.19913-8.645q-.35994-.42446-.71936-.85c-1.83388-2.16888-3.7302-4.41162-5.75813-6.42722-2.29343-2.27953-4.77988-4.46083-7.18445-6.57028q-.687-.60257-1.37266-1.20588c-2.03135-1.78986-4.14736-3.56056-6.1937-5.273l-.88757-.743c-1.42054-1.1899-2.87436-2.39065-4.28042-3.55186q-1.48428-1.226-2.966-2.4552a6.02053,6.02053,0,0,1-.47858-.45824,4.40163,4.40163,0,0,0-.35472-.34218c-.7997-.6534-1.43139-1.16944-1.33617-1.94395.09625-.78313.88644-1.15559,1.65077-1.51578A30.25689,30.25689,0,0,1,18.2847,8.98008c3.55888-.74045,7.18921-1.17691,10.582-1.53825,2.55117-.27169,5.14825-.41034,7.65982-.54443q1.05734-.05646,2.11406-.11573c1.61686-.09291,3.25761-.14235,4.84429-.19014l.85718-.02608q.99468-.03083,1.98926-.06781c1.81475-.0647,3.69122-.13157,5.54412-.13157l.20563.00028c3.30021.00885,6.84069.04173,10.37052.22089,2.9945.15194,6.92992.38723,10.81426.86178A51.101,51.101,0,0,1,85.6172,10.02a27.20927,27.20927,0,0,1,3.06325,1.47886c.461.24643.93761.50126,1.42446.7463l1.15162.57952-.9891.82683-2.7536,2.30209c-2.02028,1.68915-3.94876,3.30157-5.87816,4.91287q-1.21645,1.01588-2.43734,2.02659c-1.70795,1.41694-3.4739,2.88212-5.18692,4.34641-1.944,1.66173-3.86511,3.36911-5.71,5.07479-1.8957,1.75261-3.74229,3.47685-5.49408,5.301a58.0446,58.0446,0,0,0-4.335,4.99761c-2.16978,2.84681-2.22716,5.4308-.1921,8.64024A31.54213,31.54213,0,0,0,64.909,58.16514c.77344.65366,1.54874,1.32689,2.2986,1.97794.88892.77181,1.808,1.56991,2.72362,2.33484,2.3413,1.95621,4.74783,3.91815,7.07507,5.81551,1.59278,1.29848,3.22494,2.6164,4.80335,3.891q1.07642.86918,2.1643,1.74871l.86928.70318ZM92.86751,37.114a152.42086,152.42086,0,0,1-4.655,30.34544,1.22206,1.22206,0,0,1-.355.55648c-.039.03915-.07589.07614-.11683.12318l-.62342.71655-.64069-.70117q-.77928-.85278-1.55018-1.698c-1.12071-1.22824-2.27958-2.49827-3.41849-3.73733q-1.50132-1.6332-3.0069-3.2624c-1.56424-1.69484-3.18162-3.44735-4.76447-5.17978-.82244-.90021-1.89612-2.09392-2.90651-3.34477a5.4192,5.4192,0,0,1,.02047-6.38506c1.22792-1.70286,2.59407-3.48013,4.29923-5.59317,2.946-3.651,5.41054-6.65173,7.75608-9.44333,1.3432-1.59861,2.76166-3.16958,4.1333-4.68885q.44538-.49323.89005-.9868c.66261-.73629,1.35137-1.464,2.01749-2.16782q.45362-.47934.90567-.9602l.33756-.3604.48.11633.35648.08646.63583.15435.01127.65419c.02771,1.61916.09,3.272.15,4.87042A108.72167,108.72167,0,0,1,92.86751,37.114Z"/></g></g></svg>