<svg xmlns="http://www.w3.org/2000/svg" viewBox="0 0 115 26.63757"><title>kmc</title><g id="Layer_2" data-name="Layer 2"><g id="Layer_1-2" data-name="Layer 1"><path d="M91.72978,7.7992V18.78587H115v7.7992H90.67215a6.74155,6.74155,0,0,1-6.74157-6.74149V6.794A6.74155,6.74155,0,0,1,90.67215.05249h1.05763V0H115V7.7992ZM35.70811.05249H24.37594l-9.8734,9.36669H7.7992V.05249H0V26.58507H7.7992V17.21838h6.39749l9.87355,9.36669h11.332L21.571,13.46387Zm34.11,0L69.734,0,58.13724,18.57948,46.54029,0l-.08408.05249H38.74108V26.58507h7.79921V14.72954l7.43272,11.908h8.32831L69.734,14.72946V26.58507h7.7992V.05249Z"/></g></g></svg>