<svg xmlns="http://www.w3.org/2000/svg" viewBox="0 0 115 82.20227"><title>landmark</title><g id="Layer_2" data-name="Layer 2"><g id="Layer_1-2" data-name="Layer 1"><path d="M114.88407,38.78017l-.2803-2.32-.12032-.64653-.26036-1.33971c-.034-.18819-.07885-.365-.141-.5933l-.277-1.03687c-.08353-.31141-.16248-.60606-.2496-.89892l-.43042-1.26954a34.7693,34.7693,0,0,0-4.82634-9.1158,43.02408,43.02408,0,0,0-6.83022-7.28765,51.11307,51.11307,0,0,0-7.97137-5.51294A60.48072,60.48072,0,0,0,84.8767,4.76952a73.12835,73.12835,0,0,0-8.97864-2.70314A77.38789,77.38789,0,0,0,66.73661.51455c-.13995-.01535-.2805-.03229-.421-.04944-.2487-.0303-.48365-.05881-.71621-.07775l-2.33522-.189C63.03148.179,62.80052.16826,62.56956.1573c-.15142-.00718-.30273-.01456-.454-.02353L60.95583.07436c-.38277-.02113-.753-.03987-1.11961-.04087L57.5,0,55.176.03329c-.37869.0012-.749.01994-1.12769.04087l-1.17324.06c-.14185.00857-.29326.01595-.44458.02313-.23106.011-.462.02173-.69278.04087L49.40015.38736c-.23216.01894-.467.04745-.71581.07775-.14045.01715-.281.03409-.42165.04944a77.35594,77.35594,0,0,0-9.15976,1.55163A73.07407,73.07407,0,0,0,30.1244,4.76912a60.47667,60.47667,0,0,0-8.61959,3.98862,51.1221,51.1221,0,0,0-7.97555,5.51593,43.02194,43.02194,0,0,0-6.82593,7.28287A34.78789,34.78789,0,0,0,1.8716,30.6851l-.42733,1.26c-.08682.29187-.16557.58573-.2488.89653L.91916,33.87528c-.05224.19278-.105.39215-.13976.58513L.39623,36.4602l-.08313.65311L.11583,38.78037l-.05383.9984L0,41.10113.11583,43.4219l.2804,2.32017.12032.64653.26036,1.3397c.03728.20654.09.4059.141.5939l.27761,1.03847c.08323.31081.162.60447.2488.89653l.43062,1.26954a34.76433,34.76433,0,0,0,4.82634,9.116,43.02854,43.02854,0,0,0,6.83022,7.28766,51.10332,51.10332,0,0,0,7.97127,5.51294,60.48227,60.48227,0,0,0,8.62048,3.98942,73.08834,73.08834,0,0,0,8.97874,2.70314,77.354,77.354,0,0,0,9.16145,1.55183c.13995.01535.2805.03229.42095.04944.2488.0303.48365.05881.71631.07775l2.33512.189c.23265.01934.46361.03011.69467.04107.15132.00718.30273.01455.454.02353l1.15968.05941c.38287.02113.75319.03987,1.11971.04086l2.33622.0335,2.324-.0333c.37879-.00119.749-.01993,1.12759-.04087l1.17334-.06c.14185-.00858.29316-.016.44458-.02313.231-.011.46192-.02173.69268-.04087l2.33761-.18919c.23206-.01894.467-.04745.71571-.07775.14055-.01715.2811-.03409.42175-.04944a77.38988,77.38988,0,0,0,9.15976-1.55163,73.11407,73.11407,0,0,0,8.97843-2.703,60.47292,60.47292,0,0,0,8.61959-3.98862,51.13184,51.13184,0,0,0,7.97565-5.51593,43.01316,43.01316,0,0,0,6.82583-7.28287,34.788,34.788,0,0,0,4.83183-9.12855l.42713-1.25977c.08712-.29286.16607-.58752.2496-.89892l.27561-1.0313c.0635-.23385.10836-.41068.13986-.58532l.38317-1.99959.083-.65331.19727-1.66686.05383-.9986L115,41.10113Zm-102.759.85227.12639-1.53429.0637-.4033c.03877-.252.07785-.50838.111-.76635a4.12252,4.12252,0,0,1,.0937-.51894l.083-.386c.02482-.11284.04685-.22169.069-.33074.03349-.16487.06718-.32974.10566-.49422l.01256-.04824.22886-.799a25.71143,25.71143,0,0,1,2.90719-6.50516A37.58842,37.58842,0,0,1,26.55553,16.93435a49.30239,49.30239,0,0,1,6.96489-3.999,53.273,53.273,0,0,1,7.64242-2.88356,55.031,55.031,0,0,1,8.06875-1.71451c.12091-.01615.23664-.03309.35247-.05024.22219-.03269.45195-.06658.69029-.0913L52.29816,7.984c.24412-.02831.48854-.04126.72478-.05382.10945-.00579.2189-.01157.32825-.01914l1.02811-.061c.30462-.01953.68959-.04426,1.07356-.04645L57.5,7.75715l.02313.0004,2.04116.04625c.36672.002.75169.02672,1.0611.04645l1.01315.06021c.11952.00817.229.014.33842.01974.23634.01256.48076.02551.73544.055l2.01385.21053c.23764.02472.4672.05841.68919.0913.116.01695.23186.03409.34809.04964a55.06572,55.06572,0,0,1,8.07732,1.71611,53.29,53.29,0,0,1,7.63724,2.88176,49.31163,49.31163,0,0,1,6.96339,3.9978A37.59953,37.59953,0,0,1,99.07731,27.852c.129.207.25266.41646.3755.62619H71.02567l-29.397,16.05936H12.31952l-.005-.0343-.07277-.48365-.11672-1.496.0002-.204-.01386-1.2185.01386-1.22408ZM102.87484,42.57l-.12629,1.53408-.0637.40331c-.03887.25239-.07785.50857-.11114.76655a4.16889,4.16889,0,0,1-.0934.51814l-.08324.38656c-.02482.11264-.04685.22149-.069.33034-.03349.16507-.06718.33014-.10576.49461l-.01256.04825-.22886.799a25.71174,25.71174,0,0,1-2.90719,6.50516A37.58942,37.58942,0,0,1,88.44447,65.26792a49.31355,49.31355,0,0,1-6.96489,3.999,53.2833,53.2833,0,0,1-7.64252,2.88357A55.02963,55.02963,0,0,1,65.76841,73.865c-.12111.01614-.23694.03329-.353.05023-.222.0329-.45155.06659-.68979.09131l-2.02381.21172c-.24412.02831-.48854.04127-.72488.05383-.10945.00578-.2189.01156-.32825.01914l-1.02811.061c-.30462.01954-.68959.04426-1.07346.04646L57.5,74.44512l-.02313-.0004-2.04116-.04625c-.36682-.002-.75179-.02672-1.0612-.04646l-1.01315-.0602c-.11952-.00818-.229-.014-.33842-.01974-.23624-.01256-.48066-.02552-.73534-.055l-2.01385-.21053c-.23774-.02472-.4675-.05861-.68969-.09131-.11583-.01714-.23156-.03409-.34759-.04964a55.06583,55.06583,0,0,1-8.07742-1.7161,53.27983,53.27983,0,0,1-7.63714-2.88177,49.30036,49.30036,0,0,1-6.96339-3.99779A37.59878,37.59878,0,0,1,15.92259,54.35029c-.129-.207-.25266-.41647-.37549-.62619H43.97433l29.397-16.05936h29.30917l.00492.03389.07287.48425.11652,1.49521-.0001.20415.01376,1.21889-.01376,1.22408Z"/></g></g></svg>