<svg xmlns="http://www.w3.org/2000/svg" viewBox="0 0 120 60.26027"><title>landrover</title><g id="Layer_2" data-name="Layer 2"><g id="Layer_1-2" data-name="Layer 1"><path d="M60.013,0A107.75874,107.75874,0,0,1,91.88717,4.63917a58.80849,58.80849,0,0,1,18.22059,8.96568c3.712,2.82546,6.89,6.12849,8.66312,10.5371,2.24061,5.57091,1.32221,10.79885-1.97691,15.67671a33.10072,33.10072,0,0,1-10.901,9.7A72.0109,72.0109,0,0,1,85.32417,57.4472a106.08723,106.08723,0,0,1-18.394,2.60473,117.92415,117.92415,0,0,1-16.79635-.19355C39.17,58.911,28.52217,56.65777,18.51645,51.90257A41.85342,41.85342,0,0,1,5.67357,42.92819C2.71373,39.77441.55427,36.19218.09172,31.79673-.44494,26.697,1.41346,22.37564,4.61711,18.54517A39.22026,39.22026,0,0,1,17.42867,8.92332,82.6331,82.6331,0,0,1,41.26285,1.51981,119.1591,119.1591,0,0,1,60.013,0Zm.2732,2.403A112.544,112.544,0,0,0,35.28544,5.08836a68.75574,68.75574,0,0,0-20.63557,7.94027,29.29091,29.29091,0,0,0-9.50054,8.58528c-3.323,4.985-3.76307,10.17857-.93156,15.53194A22.75308,22.75308,0,0,0,10.13019,44.059a51.18929,51.18929,0,0,0,15.518,8.34628,97.54473,97.54473,0,0,0,27.38219,5.25482A112.98363,112.98363,0,0,0,83.7639,55.399c7.81316-1.71393,15.33187-4.22446,22.15425-8.5203a27.91194,27.91194,0,0,0,9.2787-8.81A14.14537,14.14537,0,0,0,115.5063,22.714a24.60586,24.60586,0,0,0-6.99962-7.53272A57.13819,57.13819,0,0,0,90.86261,6.73662,106.39253,106.39253,0,0,0,60.28618,2.403Z"/><path d="M89.94369,30.36259c.71567,0,1.60949-.00484,2.50322.00115,1.32551.00888,2.65655-.04773,3.97537.05289,3.49839.2669,4.77809,2.56586,3.48675,5.94755a4.80912,4.80912,0,0,1-4.12777,3.27619,1.12884,1.12884,0,0,0-.21973.04607,1.73225,1.73225,0,0,0-.2371.15114L98.38789,45.262H93.584l-2.38866-4.87228-.1966-.004-1.75249,4.90113H84.79629c.81762-2.203,1.652-4.43252,2.47238-6.66724.72359-1.97117,1.45436-3.94028,2.13405-5.92669A23.55881,23.55881,0,0,0,89.94369,30.36259Zm2.36408,6.38678a3.84056,3.84056,0,0,0,2.65736-.38551,1.82263,1.82263,0,0,0,.7596-1.82853c-.22783-.71649-.861-.63968-1.42676-.66645a2.30746,2.30746,0,0,0-.67023.01643.68718.68718,0,0,0-.44014.31044C92.88135,35.0065,92.61783,35.8334,92.30777,36.74937Z"/><path d="M57.9731,19.44812a34.841,34.841,0,0,0-2.64535,7.541H51.31283L56.68372,12.1914H60.93q.44714,3.58072.89375,7.15735l.20473.03647,2.67123-7.18014h3.74988q-.952,2.57283-1.9042,5.14706c-1.11551,3.02377-2.23914,6.04463-3.33329,9.07612a.81175.81175,0,0,1-.92215.63923c-1.09222-.03724-2.1866-.0114-3.33092-.0114Z"/><path d="M34.70437,45.26132H30.39882c1.46961-4.16728,2.9568-8.34443,4.407-12.53438a21.41105,21.41105,0,0,0,.531-2.317,63.55075,63.55075,0,0,1,6.95638.05016c3.151.34307,4.37476,2.647,3.20732,5.61255A5.26361,5.26361,0,0,1,40.7282,39.6635l3.15318,5.59391H39.246l-2.60643-5.14622Zm3.07933-8.55754c1.26587.13,2.40287.15645,3.17712-.85869a1.69648,1.69648,0,0,0,.28282-1.36423c-.11506-.32462-.69951-.53165-1.11534-.68411a2.18147,2.18147,0,0,0-.96411-.02187c-.16859.01995-.41752.13139-.46695.26288C38.37623,34.8917,38.10008,35.76251,37.7837,36.70378Z"/><path d="M66.346,27.05485c1.53043-4.14057,3.04986-8.20628,4.52733-12.28719a27.53694,27.53694,0,0,0,.67119-2.69845,69.23032,69.23032,0,0,1,6.97079.32271c2.64828.36907,4.00792,2.507,3.61318,5.31032-.83685,5.943-5.03558,9.48044-10.4874,9.38373-1.49955-.0266-3.00006.00268-4.50012.002C66.87572,27.08785,66.61052,27.06641,66.346,27.05485Zm5.58331-3.53322a3.528,3.528,0,0,0,3.06328-.68449,7.82037,7.82037,0,0,0,2.50675-5.87528A1.44134,1.44134,0,0,0,76.18366,15.401c-1.25172-.16419-1.33381-.113-1.76273,1.09562-.0667.188-.13754.37445-.20411.56245C73.46128,19.1927,72.7062,21.32649,71.92927,23.52163Z"/><path d="M54.66933,29.948c3.53025-.03146,5.3583,1.47375,5.90887,4.35626.88441,4.63044-1.73235,9.4568-5.91813,10.91543-4.768,1.66153-8.70627-1.41189-8.18417-6.42607A10.49229,10.49229,0,0,1,49.26444,32.537,7.68389,7.68389,0,0,1,54.66933,29.948Zm1.69578,6.07713a5.80239,5.80239,0,0,0-.0031-.5995,1.936,1.936,0,0,0-1.096-1.82129,2.0133,2.0133,0,0,0-2.16125.41819,3.50408,3.50408,0,0,0-.66616.70633,7.91868,7.91868,0,0,0-1.38365,5.6883,1.8434,1.8434,0,0,0,3.1761,1.19526,4.431,4.431,0,0,0,1.022-1.273A9.89881,9.89881,0,0,0,56.36511,36.02513Z"/><path d="M35.584,27.07825c1.383-2.05107,2.66359-3.95094,3.94495-5.85027,1.7062-2.52906,3.42151-5.05206,5.11083-7.59235a11.28886,11.28886,0,0,0,.679-1.44471H49.4735l.67372,14.83941h-4.197v-2.042c-1.54175,0-3.06672-.07114-4.57525.05476-.33721.02814-.76307.706-.89131,1.15764-.24126.84976-.76219.92418-1.4933.89049C37.90555,27.04119,36.81672,27.07825,35.584,27.07825Zm10.36951-9.42631-.28064-.0353L43.25038,21.567c.91222,0,1.6222.01836,2.32955-.01663a.51472.51472,0,0,0,.35728-.35262C45.96473,20.01631,45.95355,18.834,45.95355,17.65194Z"/><path d="M78.37268,30.39927H87.822l-1.16025,3.17916c-1.59762,0-3.08643-.00851-4.57481.01224a.607.607,0,0,0-.466.27263c-.30044.7321-.55271,1.484-.84761,2.30111h4.09937l-1.21625,3.41847c-1.2698,0-2.46845.01543-3.6663-.00841a.67311.67311,0,0,0-.768.53013c-.17828.567-.40215,1.11957-.63872,1.76627h5.29919c-.39334,1.15032-.742,2.20146-1.12387,3.24041-.04024.10948-.27566.20914-.42054.20916q-4.7229.00073-9.4458-.02741c-.01505-.00007-.03-.032-.00771-.00667C74.8343,40.38225,76.70062,35.477,78.37268,30.39927Z"/><path d="M77.39071,30.41211c-3.913,4.51576-7.24916,9.47278-10.86057,14.2164a1.42981,1.42981,0,0,1-1.36511.71689c-.94194-.05006-1.8885-.01295-2.84207-.01295V30.40584h4.43291v8.83087c.65467-.97982,1.24345-1.86222,1.83345-2.7438,1.07016-1.599,2.15331-3.18959,3.20208-4.80252a8.26048,8.26048,0,0,0,.54319-1.27828Z"/><path d="M35.51259,23.69518c-.40221,1.10561-.75435,2.114-1.14744,3.10619a.61025.61025,0,0,1-.47579.26358c-2.84959.0088-5.69923-.00261-8.54885-.01253a.407.407,0,0,1-.13751-.057c.75755-2.0538,1.52113-4.1051,2.27279-6.16075.87512-2.39326,1.75309-4.78567,2.59724-7.18989a8.7861,8.7861,0,0,0,.24906-1.48749h4.71326L30.67006,23.69518Z"/><path d="M30.20088,31.94351a1.6509,1.6509,0,0,1-1.23415,1.67142,49.99381,49.99381,0,0,0-5.577,2.07988h5.57213c-.40047,1.148-.73931,2.15938-1.11762,3.15572a.59038.59038,0,0,1-.45945.2648c-2.97459.01222-5.94927.00508-8.92392-.00224a1.18083,1.18083,0,0,1-.28967-.11442c.37592-1.11142.74-2.21828,1.13468-3.31414.04631-.1286.24752-.23669.39922-.28689C23.16523,34.25261,26.62846,33.117,30.20088,31.94351Z"/><path d="M95.96946,17.84925c-.40182,1.1893-.74644,2.25568-1.13269,3.30677a.82475.82475,0,0,1-.47486.411q-5.08648,1.68611-10.18383,3.3394a1.54449,1.54449,0,0,1-.28056.026A1.67917,1.67917,0,0,1,85.15465,23.326c1.83981-.54523,3.63754-1.23242,5.45257-1.86126l-.008-.19862h-5.4678c.40611-1.15663.73877-2.14339,1.10964-3.11557a.58444.58444,0,0,1,.444-.28868C89.73233,17.845,92.7798,17.84925,95.96946,17.84925Z"/></g></g></svg>