<svg xmlns="http://www.w3.org/2000/svg" viewBox="0 0 127.24 127.24">
  <path d="M127.24 69.21c-.38 2.37-.68 4.76-1.15 7.12a63.5 63.5 0 0 1-50.94 50c-1.9.33-3.8.61-5.7.92H58c-2.29-.38-4.59-.69-6.87-1.14A63.34 63.34 0 0 1 2 78.84C1 74.75.77 70.47.2 66.29c0-.3-.13-.59-.2-.89v-3.33c.14-1.48.3-3 .43-4.43a63.58 63.58 0 0 1 46.91-55.4A60.22 60.22 0 0 1 61.4.19a4.1 4.1 0 0 0 .91-.19h2.86l4.69.43a63.47 63.47 0 0 1 56.45 51.88c.35 2 .62 4 .93 6zm-63.5 57.67A63.14 63.14 0 1 0 .6 63.68a63.14 63.14 0 0 0 63.14 63.2z"/>
  <path d="M123.71 63.83A60 60 0 1 1 63.89 3.77a60 60 0 0 1 59.82 60.06zM63 97.55a114.55 114.55 0 0 0 35.69-6.39c5-1.78 9.8-3.92 13.79-7.5 3.45-3.1 5.95-6.81 6.41-11.57.55-5.69-1.58-10.61-5.27-14.66-11.25-12.38-22.7-24.62-34.15-36.85-8.49-9.07-23.8-9-32.26.11q-15 16.18-30.07 32.39c-2.47 2.66-5.14 5.16-7 8.37C6.38 68 6.83 74.68 11.45 80.63c3.11 4 7.29 6.54 11.83 8.52C36.05 94.72 49.51 97 63 97.55z"/>
  <path d="M62.46 93.65a96.63 96.63 0 0 1-39.13-10 25.05 25.05 0 0 1-7.65-5.75c-4.07-4.63-4.87-10.6-1.58-15.82a56.77 56.77 0 0 1 6.55-7.93Q34.62 39 48.7 24a20.43 20.43 0 0 1 29.44 0q16 17.17 32 34.38c3.46 3.75 5.38 8.12 4.29 13.36-.81 3.88-3.24 6.73-6.32 9-4.68 3.52-10 5.7-15.53 7.52a100.71 100.71 0 0 1-30.12 5.39zm-16.15-42l.69 1.17A16.92 16.92 0 0 0 52.56 59c6.09 4 12.64 4.42 19.44 2.42a16.72 16.72 0 0 0 8.15-5.08c.33-.39.24-1.12.35-1.69-.58 0-1.16 0-1.74.08-.14 0-.26.17-.38.27a19.27 19.27 0 0 1-16.33 4.23c-6.65-1.12-11.15-5.52-12.22-12.16a1.66 1.66 0 0 1 0-.8c.77-2.21 2-2.88 4.34-2.34 0 3.75 1.47 6.66 5.07 8.26.4.17 1 .78.95.89a6.76 6.76 0 0 1-1.13 1.34c-.26.27-.56.51-.84.77.35.22.71.63 1.06.63 3.73 0 7.45.08 11.18 0 3.44-.06 6-2.06 6.67-5s-.74-5.94-3.81-7.55c-.32-.16-.62-.34-1-.56a4.54 4.54 0 0 0 2.85-2.88 4.86 4.86 0 0 0-4.71-6c-5.38-.24-10.78-.1-16.16-.11h-.1c-.62.1-.8.39-.53 1 .14.33.36.83.22 1-1.35 2.2-2.77 4.36-4.32 6.76-.16-8.12 4.22-12.56 10.08-13.92 6.19-1.45 11.9.12 17.4 2.93.42.21.86.4 1.39.65.06-.4.18-.63.1-.76-.92-1.6-1.79-3.25-2.86-4.75-.43-.61-1.23-.6-2 0a2.81 2.81 0 0 1-1.91.44c-2.45-.36-4.88-1-7.34-1.26a18.78 18.78 0 0 0-15.36 5.53c-4.25 4.11-5.1 9.37-4.16 14.93.33 2 .24 3.54-1.09 5a2 2 0 0 0-.2.3c-1 1.78-2.41 3-4.64 3-.3 0-.6.48-.9.74.3.19.6.54.9.54q3.21.07 6.42 0c.3 0 .82-.24.84-.42s-.2-.68-.34-1-.56-.86-.49-1.23a5.25 5.25 0 0 1 .9-1.54zM33.46 73.46c-.1 4.33 4.7 8.62 9.69 8.85 4.76.23 8.63-3.51 8.91-9.13.22-4.47-4.55-8.64-9.79-8.73-4.84-.08-8.69 3.86-8.81 9.01zm57.83-8.94c0 2.74 1.32 4.52 3.61 4.67a27.18 27.18 0 0 0 5.36-.56c1.25-.18 2.47-.6 3.72-.69s1.62.69 1.19 1.81a4.74 4.74 0 0 1-3.23 2.75 9 9 0 0 1-5.61-.06 3.25 3.25 0 0 0-1.19.07 9.45 9.45 0 0 0 .32 1.07 3.07 3.07 0 0 0 4.14 1.77c.68-.2 1.39-.28 2.08-.47a10.32 10.32 0 0 0 6.65-4.81 4.89 4.89 0 0 0-.36-5.68 4.43 4.43 0 0 0-5-1.63c-.69.17-1.36.42-2 .57-1.54.34-3.09.7-4.65.93-.47.06-1.28-.15-1.43-.46a2.1 2.1 0 0 1 .22-1.64 4 4 0 0 1 3.35-2c1.41-.11 2.83 0 4.25-.08a3.34 3.34 0 0 0 1-.46l-2.14-2.28a56.39 56.39 0 0 0-6.74 2.18 5.87 5.87 0 0 0-3.54 5zm-8 18.1a27.9 27.9 0 0 0 4.24-1.35c3-1.38 3.93-3.83 3-7-.7-2.31-1.37-4.62-2.06-6.93a3.32 3.32 0 0 1 0-2.74c.45-.84-.2-1.5-1.12-1.26a20.69 20.69 0 0 0-2.82.93 1.57 1.57 0 0 0-.64 1c0 .13.45.41.71.61s1 .49 1.15.86c.86 2.75 1.72 5.51 2.38 8.32.49 2.12-.75 3.76-2.94 4.29a3.81 3.81 0 0 1-4.69-2.58c-.64-2.12-1.24-4.25-1.87-6.37a2.16 2.16 0 0 1 .43-2.51 1.24 1.24 0 0 0 .22-1.16 1.29 1.29 0 0 0-1.09-.34c-1.91.35-3.81.76-5.68 1.22a1.41 1.41 0 0 0-.81.86c0 .15.43.66.72.72 1 .17 1.27.78 1.51 1.6.67 2.4 1.55 4.75 2.05 7.19.72 3.33 3.62 4.66 7.34 4.64zm-18-6.25v-5c0-1.17.45-1.63 1.59-1.36a26.14 26.14 0 0 1 2.73 1.07c.33.11.84.2 1.05 0a1.19 1.19 0 0 0 .16-1 6.36 6.36 0 0 0-.82-1.7 1.23 1.23 0 0 0-.9-.46c-3.8 0-7.59.09-11.39.07-2.11 0-2.13-.08-2.86 1.93a3.76 3.76 0 0 0 0 1.21 6 6 0 0 0 1.29-.13c.94-.3 1.82-.78 2.77-1s1.42.11 1.4 1.2c-.05 3.37 0 6.74 0 10.11 0 1-.3 1.74-1.44 2-.32.06-.55.54-.82.84.31.24.62.69.94.7h7.72c.29 0 .57-.43.85-.65-.25-.31-.46-.82-.75-.88-1.28-.24-1.53-1.08-1.52-2.17 0-1.61-.01-3.15-.01-4.78zm-37-2.68A4.8 4.8 0 0 1 24.11 71a1.3 1.3 0 0 1 .06-1.14c2-2.7 4-5.39 6.16-8 .37-.45 1.19-.54 1.81-.77.37-.13.75-.22 1.13-.33-.21-.37-.33-.86-.65-1.09q-2.45-1.87-5-3.61c-.31-.21-.82-.14-1.23-.2 0 .4-.08.88.11 1.16a1.82 1.82 0 0 1-.13 2.47q-2.86 3.63-5.64 7.35c-.72 1-1.4 1.74-2.74 1-.21-.12-.62.15-.94.24.11.29.14.68.36.87a16.89 16.89 0 0 0 1.8 1.35c2.79 1.85 5.59 3.7 8.42 5.55a1.41 1.41 0 0 0 1.23.14 17.18 17.18 0 0 0 2.26-2.09c.19-.2.14-.62.19-.94a4.3 4.3 0 0 0-.95 0c-.71.24-1.36.5-2.11.73z"/>
  <path d="M63.85 43.6a42.14 42.14 0 0 1 5 .41 4.86 4.86 0 0 1 4.24 5.07 5 5 0 0 1-4.42 5.07 9.71 9.71 0 0 1-3.4 0c-.54-.1-1-.81-1.4-1.32-.16-.2 0-.61 0-.93-.02-2.68-.02-5.36-.02-8.3zM63.92 41.66v-6.2c1.67 0 3.29-.09 4.89 0a3.06 3.06 0 0 1 2.65 3.15 3 3 0 0 1-2.66 3c-1.6.14-3.21.05-4.88.05zM52.9 41.43a40.47 40.47 0 0 1 3.77-5.53c.56-.6 2.24-.34 3.36-.16.57.1.41 1.16-.25 1.4a8.82 8.82 0 0 0-4.9 4c-.23.41-1.17.43-1.78.64zM60.37 49.92A5.55 5.55 0 0 1 57 43.77l1-.05h2.38v6.2zM60.28 41.6h-3.05a5.16 5.16 0 0 1 3.05-3.38zM47.81 71.67a10.41 10.41 0 0 1-3.88 6.92 3.76 3.76 0 0 1-6.1-2.84A9.19 9.19 0 0 1 41 68.13a3.86 3.86 0 0 1 4.53-.71c1.53.75 2.3 2.08 2.28 4.25z"/>
</svg>
