<svg xmlns="http://www.w3.org/2000/svg" viewBox="0 0 162.71729 249.95462">
  <g data-name="Layer 2">
    <g data-name="Layer 1">
      <path d="M84.48844 0c2.16817.294 4.35244.50059 6.50183.89655 11.94007 2.19963 22.13773 7.86538 31.10419 15.87775 11.3932 10.18087 19.565 22.67686 25.86872 36.46909a163.49116 163.49116 0 0112.99252 45.94152 187.63751 187.63751 0 011.3953 37.39168c-1.46557 23.56127-6.80563 46.12477-17.82736 67.15026-6.07883 11.5962-13.70457 22.02927-23.71726 30.58483-7.80879 6.67237-16.53463 11.65156-26.592 14.07083a54.082 54.082 0 01-34.4023-2.869c-10.88162-4.57283-19.778-11.81881-27.40649-20.69994-11.2847-13.13776-18.79017-28.33065-24.06362-44.70435A173.73349 173.73349 0 01.93434 143.733a189.20911 189.20911 0 01.07195-38.27171C3.18412 84.6031 8.47423 64.6284 18.31975 46.00314c6.35433-12.02081 14.324-22.79537 24.91686-31.464C51.62326 7.67594 61.01077 2.85 71.748.89369 73.94094.49413 76.17.29274 78.38239 0zm76.26913 125.09155a181.9666 181.9666 0 00-4.69437-41.86225c-3.91261-16.72175-10.0615-32.52152-19.666-46.85058-7.223-10.776-15.92569-20.09542-27.27873-26.621C93.41647.7324 77.09372-.64411 60.29157 6.39305 49.79708 10.7884 41.25221 17.86881 33.8833 26.42224c-9.431 10.94705-16.206 23.44232-21.24555 36.91828a172.83293 172.83293 0 00-10.54136 54.482 181.68287 181.68287 0 006.43613 56.25655c4.34012 15.46585 10.72972 29.99159 20.23867 43.02578 7.65588 10.49416 16.804 19.34709 28.58813 25.13552 13.79361 6.77551 27.97841 7.7013 42.45688 2.39422 10.257-3.75967 18.789-10.10916 26.22357-17.99031 10.394-11.01834 17.75377-23.92278 23.23833-37.94887 7.99418-20.44409 11.40159-41.72641 11.47947-63.60386z"/>
      <path d="M9.75311 150.52889h63.25234v-6.33538h17.71063v6.32025h62.32815c-.33762 2.5897-.58528 5.00585-.97573 7.39867a146.48609 146.48609 0 01-11.64879 38.74866c-5.46766 11.68761-12.48958 22.27547-22.29154 30.822-8.75063 7.62986-18.66658 12.97724-30.23543 14.87842a45.56156 45.56156 0 01-23.38059-2.56086c-10.21556-3.74478-18.54284-10.18557-25.69438-18.24736-9.70079-10.93553-16.31-23.64258-21.19456-37.31375a156.96271 156.96271 0 01-7.779-32.29444c-.05277-.39861-.05321-.80416-.0911-1.41621zm83.64333 18.8697a1.76841 1.76841 0 012.51874 1.1622 22.103 22.103 0 001.529 2.91106 5.49109 5.49109 0 005.046 2.85667c1.74948-.003 3.49973.02643 5.24783-.02248a3.14809 3.14809 0 001.05552-.46891c-.30809-.21835-.58957-.55967-.929-.63309-1.26647-.27391-1.50641-.53923-1.21457-1.84526a20.669 20.669 0 01.91315-3.15162 1.54263 1.54263 0 011.09736-.80515c3.67622-.23131 3.67758-.20815 4.7282 3.32607.02312.07776.0603.15138.08251.22935.501 1.75784.45705 1.81006-1.32568 2.27713-.23163.06067-.397.37429-.59306.57075.21719.17268.4315.49092.652.49527q2.98923.05925 5.9799.00324c.23568-.00437.46592-.30256.69869-.46456-.17853-.22348-.34806-.63121-.53705-.64044-1.19723-.05848-1.51244-.90071-1.81781-1.82744q-2.15424-6.53785-4.35631-13.05976c-.12443-.36681-.4415-.87628-.74258-.93363a11.02683 11.02683 0 00-2.11413-.04435 8.36868 8.36868 0 01-.13751 1.96981c-1.38546 4.0325-2.8163 8.04953-4.255 12.06351-.33454.93338-.75878 1.86821-1.93562 1.94722a2.45478 2.45478 0 01-2.41833-1.71257c-.80386-1.66749-1.59559-3.34083-2.39966-5.02686a2.906 2.906 0 01.26178-.20177 4.59643 4.59643 0 002.22027-5.31686c-.36375-1.843-1.58169-2.96387-3.95463-3.14258-2.54844-.19191-5.11837-.12065-7.6786-.10623-.33475.00188-.66758.34817-1.0013.535.3247.19478.6587.56861.97244.55233 1.15283-.05985 1.48593.48046 1.47706 1.53763-.02971 3.53941.00682 7.07933-.01821 10.6188-.01242 1.758-.05936 1.75051-1.85262 2.19847-.22537.05629-.38326.38275-.57242.584.18816.16243.37451.46374.56477.46624 2.43211.03192 4.86477.02106 7.2751.02106.35656-1.02176-.138-1.17961-.86639-1.12863-.88614.062-1.56719-.197-1.59063-1.21085-.0354-1.53342-.00921-3.06826-.00921-4.58277zm-63.68331 2.2201c-.1988-.47887-.32432-.7629-.43573-1.05237-1.22554-3.184-2.48151-6.35695-3.65148-9.56128a1.43161 1.43161 0 00-1.68451-1.132c-1.01068.0811-2.03459-.01353-3.04882.04106-.28583.01538-.55794.28571-.83635.43911.26231.21477.50554.5801.7905.61622.87141.11048 1.32793.4373 1.2667 1.39976q-.34472 5.41789-.61534 10.84033c-.057 1.1828-.41977 1.94328-1.75771 1.988-.27235.00908-.53134.41828-.79649.643.31335.16233.62146.45157.941.46477 1.29972.05368 2.605.06359 3.90357-.00242a3.33321 3.33321 0 001.11342-.52843 11.34971 11.34971 0 01-.95568-.646c-.35947-.29652-.98243-.6478-.97313-.95994.10536-3.53558.31-7.06818.48806-10.6016 1.71189 3.93289 3.19911 7.88147 4.72409 11.81538.13907.35878.52019.62371.78891.93222.27364-.30378.66066-.56211.80344-.91834 1.48077-3.69426 2.921-7.40474 4.37712-11.10892.1-.25432.23692-.49412.495-1.0254.1835 3.63682.32579 6.92789.52911 10.21517.06587 1.06507-.27984 1.638-1.38931 1.65614-.70463.01156-1.10672.26838-.72722 1.189 2.13716 0 4.32574.01533 6.51329-.02518.205-.00378.40351-.36.605-.55255-.22119-.17332-.44323-.49669-.66343-.49542-1.35111.00768-1.59195-.85648-1.6474-1.93118-.18234-3.534-.36361-7.06813-.57354-10.60051-.06342-1.06723.04459-1.88946 1.43846-1.77533.18272.01495.39612-.34482.59531-.531-.21235-.17164-.41595-.47684-.6386-.49142-.89134-.05844-1.80112.0672-2.68074-.05018-1.32717-.17711-1.90631.38956-2.34712 1.60266-1.21751 3.35051-2.57713 6.64945-3.95038 10.14665zm54.186-11.51652c-.19048-.09947-.26118-.16852-.33219-.16884-3.57862-.01578-7.15731-.03473-10.73578-.014-.21752.00125-.4332.32237-.64973.49466.23838.18853.47289.53268.71583.53873a1.38857 1.38857 0 011.56427 1.58163q-.00867 5.61333-.004 11.22667a1.28376 1.28376 0 01-1.28415 1.45555c-.35013.04249-.66579.369-.99716.56612.37782.18186.75269.51367 1.13393.52114 2.43971.04795 4.88081.02468 7.32145.02477 1.24937.00005 2.49874 0 3.83348 0l.36379-4.22393-.39257-.24046c-.26563.29955-.65615.55619-.77625.90574-.68205 1.98505-1.04385 2.27367-3.1614 2.2809a17.97531 17.97531 0 01-2.31453-.03664c-.29435-.03739-.76894-.42459-.77716-.66553-.06453-1.891-.03578-3.78508-.03578-5.77 1.04739 0 1.93512.01327 2.82226-.00355.99058-.01876 1.66689.2489 1.64119 1.43388-.005.23074.37612.46985.57915.70509.16179-.27066.45225-.53616.46331-.81284.05037-1.259.05045-2.52225-.00056-3.78116-.01085-.26779-.31068-.52388-.47736-.78536a8.54922 8.54922 0 00-.60642.70308c-.27751.39783-.484 1.139-.78581 1.1742a32.29353 32.29353 0 01-3.67368.05644v-6.09254c1.20075 0 2.20951-.015 3.21766.00334 1.75112.03192 1.88217.16948 2.38586 1.80892.10445.34.4808.59644.73183.8914l.23053-.24274zM47.418 176.2777c.19752-.90173-.19322-1.15456-.88981-1.17223-.99692-.02526-1.42394-.54607-1.173-1.51594.31461-1.21608.641-2.43294 1.05763-3.61586a1.2082 1.2082 0 01.88774-.58176c3.75266-.32825 3.75375-.31567 4.82466 3.22934.02351.07784.049.15509.07155.2332.53415 1.85258.50266 1.88621-1.32128 2.37-.23216.06159-.39666.3782-.59251.57666.21525.174.428.49554.64616.49925 2.19.03751 4.381.02281 6.99384.02281-.381-.55847-.568-1.09515-.78516-1.10759-1.2599-.07225-1.57161-.96241-1.88613-1.92145-1.40537-4.28538-2.81081-8.57088-4.25971-12.8416a1.76289 1.76289 0 00-.89918-1.07553 8.32026 8.32026 0 00-2.09044-.04932 6.50731 6.50731 0 01-.02315 1.84464c-1.428 4.14887-2.88 8.29055-4.42059 12.39846-.22574.60193-.96942 1.00222-1.44755 1.51973-.27241.29484-.49238.63813-.90839 1.18715zm12.18043-4.29737l-.32675.33266c.1128 1.16712.19805 2.33811.36122 3.49815a.89943.89943 0 00.554.62332c.99494.16764 2.017.1795 3.00863.36061a4.9901 4.9901 0 005.925-5.66992 6.06734 6.06734 0 00-2.63218-3.81559c-1.11845-.87751-2.29838-1.68116-3.376-2.60509-1.26555-1.08506-1.39681-2.28431-.48276-3.2718a2.54662 2.54662 0 013.70438-.12439 17.414 17.414 0 011.30451 1.88135 6.28848 6.28848 0 00.94845.83019l.29876-.24276c-.09048-1.12589-.14468-2.25688-.30176-3.37341-.03179-.226-.4278-.51179-.69894-.5702-.59038-.1272-1.23775-.02608-1.81013-.19425a4.99669 4.99669 0 00-5.7802 1.99572c-1.0789 1.74126-.67252 3.8754 1.13185 5.59726.64343.614 1.39211 1.11793 2.09445 1.66992a26.89245 26.89245 0 012.38045 1.89154 2.71437 2.71437 0 01.25919 3.92541 3.00381 3.00381 0 01-4.35462-.05567c-.51492-.55282-.81678-1.29846-1.27905-1.90829a5.21455 5.21455 0 00-.92849-.77476zm64.87917-10.80911c0 3.9143.00114 7.64529-.00045 11.37629-.00091 2.14464-.00636 2.13105-2.0899 2.65978-.23819.06045-.41128.37737-.61455.57538.21362.17978.42495.51274.6412.516 2.471.03682 4.94272.02339 7.3727.02339.38995-.9025-.00554-1.09211-.70829-1.1718-1.72038-.19514-1.80881-.31351-1.81746-2.03849-.00836-1.66654-.0026-3.33315-.00272-4.99973-.00017-2.26572 0-4.53146 0-6.83873a11.31919 11.31919 0 013.46.09811c.55653.19275.72741 1.40589 1.15863 2.10582.14422.23409.55669.3029 1.06085.554-.11747-1.33427-.23186-2.33823-.28683-3.34545-.04962-.9089-.0254-1.77357-1.32765-.924a2.1826 2.1826 0 01-1.19063.12218c-3.61587-.16968-7.26093.42181-10.96776-.42612l-.31155 4.32261.40426.21192a3.62465 3.62465 0 00.70031-.88752c.69358-1.91286.67592-1.92 2.7535-1.93311.52453-.00336 1.0491-.00053 1.76635-.00053zm18.53046 15.15048l.22863-.32648c-.24413-.27467-.442-.71242-.7401-.797-1.67879-.47661-1.84258-.5973-1.85747-2.40416-.02713-3.29078.02889-6.58247-.02138-9.8727-.01845-1.20748.4368-1.80659 1.63719-1.94441.28751-.03305.53724-.39532.80435-.60615-.27177-.15918-.541-.451-.81571-.45633q-3.04614-.05882-6.09374-.00116c-.28064.00519-.55622.28345-.83415.43528.25725.22189.49334.60023.77546.63845a1.68606 1.68606 0 011.65964 1.9617c-.04241 3.41234-.02119 6.82546-.03374 10.23823-.004 1.09526-.16827 2.05736-1.63152 2.02216-.20241-.00486-.41374.36133-.62092.55575.2063.18563.41.52915.6193.53264 2.30756.03848 4.61598.02418 6.92417.02418zM64.95466 101.31555c11.88865-16.3468 15.272-34.63224 14.13669-54.22721-3.91856 1.367-7.3736 3.70629-11.31454 4.76972l-.26821-.40515c.42717-.50914.84664-1.025 1.2828-1.52629 2.08116-2.39216 4.28889-4.68618 6.22324-7.19143 3.13909-4.06559 4.31494-8.95423 5.35392-13.86474.33636-1.58973.642-3.186.98137-4.775a10.1031 10.1031 0 01.36124-1.0918l.32866-.00967c.31364 1.43715.61692 2.87665.94328 4.3109.51348 2.25654 1.0002 4.52035 1.57326 6.76191 1.41436 5.53239 4.63621 9.97323 8.5393 13.99688a25.79213 25.79213 0 012.98233 3.57401c-4.0458-.85053-7.5083-3.07305-11.46155-4.58385-1.1852 19.57218 2.19707 37.851 14.10016 54.2618H96.1419c-1.91292 0-3.82905-.06623-5.73749.02612a2.00878 2.00878 0 01-2.06957-1.24741 71.445 71.445 0 01-6.58109-15.439c-.15554.4569-.33516.90717-.46291 1.37171a60.82729 60.82729 0 01-6.15665 14.4233 1.51021 1.51021 0 01-1.5254.88578c-2.7509-.05234-5.5034-.02058-8.65413-.02058zM120.94506 59.61723c-4.10739.17074-7.27233 1.883-10.46973 3.59185 1.08381-5.5451 17.51347-16.057 22.70682-14.40117-.36978.60526-.685 1.20023-1.07276 1.74344a78.46039 78.46039 0 00-8.53092 14.61065 74.04456 74.04456 0 00-5.13537 19.75261c-.68008 5.23555-1.0373 10.513-1.54027 15.77167-.015.15739-.05474.31242-.09686.54569h-8.54736c1.39671-14.6575 4.68811-28.69819 12.68645-41.61474zM53.26786 63.19493c-3.17134-1.69421-6.3366-3.40665-10.44-3.57949C50.79009 72.5332 54.12984 86.559 55.50678 101.24889h-8.52765c-.18545-2.42649-.33206-4.84829-.56188-7.26216-.864-9.07542-2.10914-18.077-5.35752-26.67478a72.86788 72.86788 0 00-9.1091-16.3558c-.48157-.67784-.89612-1.40329-1.34171-2.1067l.17911-.35785a26.25879 26.25879 0 012.68219.28191c6.33435 1.3066 11.3863 4.82263 15.82356 9.33864 1.49474 1.52127 2.86541 3.16445 4.29278 4.75191zM101.51769 120.18538c-.44789.13225-.8901.2894-1.34453.393-5.85019 1.33328-9.286 5.22466-9.85091 11.21528-.20239 2.14631-.19863 1.70474-1.935 1.71312-4.43524.02137-8.87066.00711-13.306.00711h-1.46884c-.38706-7.46044-3.96374-12.16693-11.48158-13.51856h39.31132zM120.37418 103.64631v2.75445h-75.166c-2.36687 0-2.54172-.24076-1.95277-2.75446zM43.2615 117.19285v-2.53711h77.20944v2.53711zM46.94708 111.74482v-2.65259h69.7576v2.65259zM70.18623 141.56089v-5.43628H93.455v5.43628zM55.43383 119.98645c.07212 4.50315-3.26558 7.09313-7.56567 5.98274-.23985-.06192-.58174-.38531-.5873-.59468-.047-1.77267-.02684-3.54713-.02684-5.38806zM116.483 119.91684c0 1.92824.01448 3.66506-.0184 5.401a.83463.83463 0 01-.405.62417c-3.82491 1.58175-8.01675-1.6153-7.7291-5.93889a7.91817 7.91817 0 01.81366-.08244c2.38478-.00668 4.76961-.00384 7.33884-.00384z"/>
      <path d="M93.34824 168.02589v-6.99643c1.44719-.08431 2.99284-.45243 3.9975.94549a4.56783 4.56783 0 01.22842 4.75983c-.85106 1.81139-2.62102 1.15985-4.22592 1.29111zM108.15342 168.00272c.65394-1.86018 1.27257-3.62 2.01155-5.72208.68349 2.10213 1.25037 3.84562 1.86049 5.72208zM48.91906 162.25478l1.86182 5.74475H46.916z"/>
    </g>
  </g>
</svg>