<svg xmlns="http://www.w3.org/2000/svg" viewBox="0 0 100 100.02687"><title>maxmotor</title><g id="Layer_2" data-name="Layer 2"><g id="Layer_1-2" data-name="Layer 1"><path d="M0,49.97025a50.00009,50.00009,0,1,1,50.0567,50.05609A49.95946,49.95946,0,0,1,0,49.97025ZM89.90987,71.2531l.36419-.08766c7.34358-15.59961,7.20832-31.01528-2.22142-45.72112-8.40111-13.10169-20.79557-19.7999-36.233-20.83681l-.23721.25954ZM48.19779,4.89726l-.20844-.29839C31.77418,5.82806,19.04679,13.12139,10.80719,27.26471c-8.31569,14.27391-8.14462,29.03422-.98843,44.105C22.70564,49.04966,35.45171,26.97346,48.19779,4.89726ZM12.74856,75.705c7.59016,11.6908,23.678,21.85814,43.35181,19.27527a43.99463,43.99463,0,0,0,17.63626-6.30453,45.51282,45.51282,0,0,0,13.63-12.97074ZM39.48344,39.62056,21.29071,71.14188c3.1507,0,6.01177.02069,8.87166-.02805a1.37794,1.37794,0,0,0,.96363-.6206Q37.54495,59.46507,43.88988,48.394a1.26082,1.26082,0,0,0,.02465-1.0529C42.50393,44.816,41.04236,42.31942,39.48344,39.62056Zm10.366-1.68455c.19454-.252.291-.35152.35836-.46792,2.38089-4.115,4.77166-8.22447,7.1119-12.36252a1.476,1.476,0,0,0-.062-1.22689c-2.23688-3.94993-4.51746-7.87513-6.79064-11.80446-.16609-.2871-.36282-.55648-.60336-.9224-2.53626,4.384-4.99443,8.61769-7.4227,12.86848a1.14789,1.14789,0,0,0-.04576.958C44.83308,29.2635,47.30542,33.5291,49.84948,37.936Zm10.46468,1.68885c-1.58513,2.74018-3.08485,5.29392-4.52285,7.882-.13532.24354.031.75288.20394,1.05485,2.84287,4.96442,5.71769,9.91055,8.559,14.87585a1.35275,1.35275,0,0,0,1.35729.7823c2.54109-.03409,5.0829-.01079,7.62442-.01845a7.76124,7.76124,0,0,0,.89767-.11782ZM57.65082,71.08568c-2.61769-4.53209-5.14019-8.8994-7.75472-13.426l-7.747,13.426Z"/></g></g></svg>