<svg xmlns="http://www.w3.org/2000/svg" viewBox="0 0 175.12 175.12">
  <path d="M0 125.81V49.65C1.86 47.8 3.74 46 5.59 44.11L49.65 0h76.83a10.07 10.07 0 0 0 .78 1q6.11 6.2 12.24 12.37l28.67 28.87c2.27 2.28 4.63 4.47 7 6.7v76.49c-2 2-4.05 4-6.06 6l-43.59 43.63H49c-2.13-2.26-4.22-4.57-6.41-6.78q-19.67-19.66-39.35-39.36c-1.06-1.06-2.16-2.08-3.24-3.11zm160-38.47V57.65a3.68 3.68 0 0 0-.89-2.33q-19.35-19.55-38.83-39a3.58 3.58 0 0 0-2.31-.93c-19.9 0-39.81 0-59.71-.07a3.75 3.75 0 0 0-2.9 1.25Q36 35.93 16.54 55.17a4.24 4.24 0 0 0-1.42 3.34q.06 29.19 0 58.37a3.93 3.93 0 0 0 1.27 3.06Q36 139.44 55.65 159a3.81 3.81 0 0 0 2.46 1q29.44.09 58.87 0a4 4 0 0 0 2.6-1.07q19.68-19.56 39.3-39.21a3.55 3.55 0 0 0 1.12-2.79V87.34z"/>
  <path d="M52.38 107C48 97.22 43.79 87.88 39.59 78.54h-.3v50.22c-3.31-3.23-6.41-6.25-9.5-9.3-1.63-1.61-3.27-3.21-4.81-4.91a3.37 3.37 0 0 1-.84-2q-.08-25.23 0-50.48a2.69 2.69 0 0 1 .61-1.76c4.81-4.59 9.68-9.12 14.53-13.66a7.31 7.31 0 0 1 .65-.45c3.44 7 6.85 13.94 10.42 21.19.33-.81.57-1.33.77-1.86q7.3-19.49 14.57-39c.38-1 .77-1.49 2-1.47 5 .08 9.95 0 14.92 0 .44 0 .87.06 1.39.1v124.42H67.29V69.35l-.45-.09zM123.21 102.51V87.37h27.71c0 .55.1 1 .1 1.52v23.48a3.64 3.64 0 0 1-.94 2.31q-17.08 17.07-34.27 34a3 3 0 0 1-1.81.94c-5.87.06-11.74 0-17.61 0a3.16 3.16 0 0 1-.58-.13V25.23c.48 0 1-.12 1.43-.12h16.77a3.43 3.43 0 0 1 2.18.86q17.1 17.28 34.12 34.64a2.43 2.43 0 0 1 .72 1.41v13.32h-15.16v-4.83a2.71 2.71 0 0 0-.61-1.62q-10.86-11.4-21.79-22.75c-.22-.23-.48-.42-.9-.78v84c1.52-1.47 2.89-2.74 4.21-4.06 5.54-5.52 11.09-11 16.58-16.61a10 10 0 0 0 2.15-3.12c.83-2 0-3.11-2.18-3.14h-8.21z"/>
</svg>
