<svg xmlns="http://www.w3.org/2000/svg" viewBox="0 0 160.92 123.09">
  <path d="M18.92 59L0 58.24V47.15l20.56-.21C25.09 30.1 34.67 17.11 49.68 8.33A59.62 59.62 0 0 1 90.28.84a61.51 61.51 0 0 1 51.53 63.54c.89.11 1.8.07 2.7.12l2.68.12 2.75.12 2.68.11 2.75.09 2.69.11 2.73.14c.15.53.18 10 0 11l-10.26.1c-3.43 0-6.86.08-10.29.12-5 18-15.57 31.55-32.23 40.08a60.05 60.05 0 0 1-40.14 5.32A59.69 59.69 0 0 1 42 109.63 61.43 61.43 0 0 1 18.92 59zm115.82 5.16A54.34 54.34 0 0 0 86.88 7.49c-30-3.57-53.23 17.19-58.77 39.45H29l14.83-.17 54.29-.64Q106.53 46 115 46a.91.91 0 0 1 .74.12l-21.17 16.1v.06a.48.48 0 0 0 0 .12zm-2 12.2h-.83l-16 .2-56 .63-13.41.15c-.24 0-.5.09-.75-.14l10.32-8 10.36-8c-.77-.22-39.8-1.91-40.32-1.78A54.46 54.46 0 0 0 76 115.81c28.16 2.32 50.89-17 56.73-39.44z"/>
</svg>
