<svg xmlns="http://www.w3.org/2000/svg" viewBox="0 0 120 39.76191"><title>peykan</title><g id="Layer_2" data-name="Layer 2"><g id="Layer_1-2" data-name="Layer 1"><path d="M73.80292,18.06489H44.17142a30.70433,30.70433,0,0,0,1.557,2.82447c.16354.24.76482.24959,1.1655.25023q11.4905.01826,22.981.00582c2.03088-.00034,4.063-.038,6.09181.02661a2.225,2.225,0,0,1,1.48143.57842c3.66718,4.24363,8.57571,6.74886,13.2607,9.5672a1.88115,1.88115,0,0,0,.88882.28863c1.813.02646,3.62659.01318,5.51025.01318a20.69607,20.69607,0,0,1-2.668-2.568,22.97094,22.97094,0,0,1-1.73859-3.46684c-1.30945,0-2.8278-.031-4.34379.01525a1.03681,1.03681,0,0,1-1.21043-.71468c-.4696-1.18766-1.09768-2.31391-1.54446-3.50884a1.20982,1.20982,0,0,0-1.33635-.91493c-3.02823.02556-6.05678.01418-9.08521.00973-9.2632-.01363-18.52656-.06016-27.78937-.00853-1.18014.00658-1.52267-.54883-1.925-1.6058H85.79422c-.11837-.2209-.15151-.31376-.169-.3109-1.16557.19079-1.66846-.4197-2.04338-1.45128-.53256-1.46533-1.25245-2.86183-1.86009-4.30133-.10732-.25423-.15483-.78255-.06183-.82622a1.33673,1.33673,0,0,1,.98161-.09678,1.9685,1.9685,0,0,1,.80123.78675c1.89077,3.13523,3.87554,6.22252,5.58429,9.4552.89418,1.69165,1.92162,2.40154,3.85907,1.76394a7.92676,7.92676,0,0,1,3.66068-5.7201,7.4677,7.4677,0,0,1,4.8152-1.04352,7.581,7.581,0,0,1,6.56876,6.70568c1.39193,0,2.80378.07434,4.20362-.02339a2.34556,2.34556,0,0,1,2.40667,1.4739h-6.55355a8.5917,8.5917,0,0,1-4.18269,6.33248H120v8.16067H0V31.63052H42.93948c-3.396-.63418-6.394-2.30154-9.58289-3.407-1.81047-.62765-3.62128-1.27865-5.36137-2.07358-.74883-.34209-1.73379-.98949-1.87164-1.6521-.20152-.96866.9854-1.353,1.76979-1.67859,2.19754-.91214,4.43011-1.7411,6.65852-2.57715,1.15609-.43375,1.16532-.40916,3.00859.816-1.6581.66169-3.22119,1.28717-4.7857,1.90905-.75751.30112-1.53952.5515-2.267.91237a3.93287,3.93287,0,0,0-.85865.82685,4.26744,4.26744,0,0,0,.94022.75233c4.60282,1.88329,9.20828,3.7611,13.83767,5.57761a7.7772,7.7772,0,0,0,2.7494.56408q20.04.05149,40.08023.0207.47423,0,.94844,0l.0998-.2421c-.40623-.21047-.80714-.432-1.21955-.62959-2.49391-1.19474-4.98668-2.39206-7.49268-3.561a1.36969,1.36969,0,0,0-.79963.00351c-5.93245,1.30215-11.86081,2.62292-17.79524,3.91589a11.9604,11.9604,0,0,1-2.22464.24279,4.07951,4.07951,0,0,1-1.10569-.28607l.0243-.33346L74.758,26.54061a7.7,7.7,0,0,0-.93609-1.02206c-.689-.50086-1.4311-.92791-2.13481-1.40951a6.96324,6.96324,0,0,0-4.79736-1.21729c-5.91839.50891-11.856.79325-17.78574,1.17174-1.56184.09969-3.12243.22044-4.68269.34292a7.2911,7.2911,0,0,1-4.334-.7914c-.88826-.50646-1.8247-.92843-2.92306-1.48048l1.98645-.998a23.67088,23.67088,0,0,0-3.20317-1.87029c-.51476-.20654-1.2653.17455-2.00194.30591l-.96416-1.03356q1.98216-2.67179,3.96566-5.34518c.29674-.39988.6-.795.8911-1.199,1.01374-1.40713,1.01219-1.40825-.12422-3.07782-.20878.47766-.38145.87482-.55587,1.27121-.17139.38949-.34455.77821-.569,1.28471-1.29573-1.53137-2.55833-3.00231-3.78486-4.50275A.8636.8636,0,0,1,32.72,6.215c.96787-2.04854,1.973-4.07946,3.01651-6.215,1.73434,1.38367,3.39783,2.70674,5.05655,4.03576.9162.7341,1.77644,1.55061,2.75074,2.19581.84475.55941.79689,1.12436.47566,1.94964-.88976,2.28593-1.7023,4.602-2.53537,6.9098-.10527.29161-.15089.60476-.25484,1.03494.50744,0,.92383-.00062,1.34022.00009,9.26315.01584,18.52638.05659,27.78934.023A3.47577,3.47577,0,0,1,73.80292,18.06489ZM.79553,39.42753H2.06492q57.86673-.00051,115.73346-.00121a2.66876,2.66876,0,0,0,.84744-.02494c.20805-.07328.49777-.329.50055-.50771.03424-2.19774.02232-4.3962.02232-6.638H.79553ZM99.77127,18.92274a5.34427,5.34427,0,0,0-5.00094,4.95047h5.05586c0-1.513.00224-2.926-.00247-4.33883C99.823,19.32847,99.78922,19.12268,99.77127,18.92274Zm1.5236,11.30278a5.19242,5.19242,0,0,0,4.79389-4.83225c-1.3827,0-2.76719-.02758-4.14834.02792a.88038.88038,0,0,0-.61674.59689C101.26714,27.39967,101.29487,28.78471,101.29487,30.22552Zm-1.61758.02933V25.51878H94.736A5.44782,5.44782,0,0,0,99.67729,30.25485Zm1.72879-11.28152v4.85405H106.159C105.911,21.26461,103.67681,18.97271,101.40608,18.97333Z"/><path d="M34.27359,15.89136a19.70845,19.70845,0,0,1-1.32847,2.1304,1.42964,1.42964,0,0,1-1.02934.29632c-4.69568-.14107-9.38983-.34788-14.08627-.43429a4.12594,4.12594,0,0,0-2.32746.75195c-1.84247,1.33124-3.56387,2.82892-5.35739,4.22978a7.40686,7.40686,0,0,1-1.63716.96839c-.20978.08944-.5585-.147-.84383-.23475.09574-.26662.11458-.61636.29907-.787,1.90385-1.76122,3.98835-3.35519,5.71311-5.27388,1.632-1.81554,3.47439-2.08339,5.72484-1.98121,4.5136.20494,9.03776.17651,13.55749.24907C33.33194,15.8121,33.70513,15.85344,34.27359,15.89136Z"/><path d="M65.94608,36.17187l1.32049.60211a4.93418,4.93418,0,0,1-1.26475.35748c-3.91448.02873-7.82926.02075-11.74395.01664-.53882-.00056-1.05225-.09314-1.15764.71543-.02777.2131-.60245.50189-.92938.50634-3.4153.04655-6.83132.04758-10.247.03578-.16736-.00057-.33391-.23663-.50083-.363.18713-.10827.373-.308.56157-.31058,1.77916-.02447,3.55879-.01148,5.33825-.019a1.88156,1.88156,0,0,0,1.096-.28519,59.84214,59.84214,0,0,0-6.892-.31756c-.2768-1.752-.20177-1.90652,1.42473-1.933,2.88182-.047,5.76519-.04178,8.6472-.00416.68532.00895,1.58613-.138,1.66987,1.00567.00709.09685.3345.24256.51376.24354,2.313.01274,4.62618.00563,6.93923-.00727.11751-.00065.23446-.09933.35167-.15238l-.0042-.31436H55.54382l-.08266-.45721c.247-.11366.49365-.325.74115-.326,2.81061-.01167,5.62142.00289,8.43205.02472C65.35928,35.19538,66.05385,35.28839,65.94608,36.17187ZM48.43,36.283l-.00665-.24587H46.226l.00312.24587Z"/><path d="M84.386,35.24159a1.40737,1.40737,0,0,1,.09962.27818c.18655,2.91214.18616,2.91132-2.72405,2.91023q-4.96179-.00184-9.92357.0004c-2.53669.00415-2.54342.00383-2.47128-2.53077.00585-.20546.03788-.41019.064-.67964H74.048a3.14727,3.14727,0,0,1,.08038.432c.0789,2.06484.07776,2.06489,2.20634,2.06491h3.28683V35.24159Z"/><path d="M5.39149,37.27659c-.22375-1.89268-.13207-2.07038,1.39728-2.09114q4.48752-.06092,8.97635.00886c1.30766.02217,1.24666.10915,1.316,1.92958.041,1.0769-.52162,1.29323-1.36053,1.29606-3.24186.011-6.48382.015-9.72552-.00849-.23521-.0017-.46867-.24441-.70294-.37507.22722-.10555.45313-.29926.68185-.30263,1.78106-.0263,3.56267-.01155,5.34406-.02095.3242-.00171.64812-.05584.97217-.08576l-.00273-.35046Zm6.87334-.97132.01456-.28671H10.05825l.00115.28671Z"/><path d="M95.70717,37.71911V35.23323H100.376c-.159,1.19073.56759,1.26745,1.48636,1.21445,1.02384-.05907,2.05373-.01354,3.151-.01354l.17723-1.22573h4.45905c.33917,1.64918.208,1.87131-1.389,1.906-2.27677.04946-4.55513.02586-6.83281.03352-.49407.00166-.98338-.09637-1.06026.68838-.02155.22-.64959.53007-1.00819.54232-1.8129.06191-3.62876.04863-5.44331.03178-.18454-.00173-.36723-.20341-.55078-.3123.20731-.12633.4062-.34095.62358-.36167C94.53746,37.68413,95.09433,37.71911,95.70717,37.71911Z"/><path d="M86.513,33.10955h4.6389V37.0574c-1.29518,0-2.59355.05419-3.88041-.04336-.27429-.02079-.68776-.57424-.72384-.91543A29.32156,29.32156,0,0,1,86.513,33.10955Z"/><path d="M111.95213,33.11152c.287-.02408.45692-.05027.62689-.05072,1.31009-.00344,2.62019-.00189,4.01681-.00189v4.0065c-1.30626,0-2.60935.0532-3.90122-.04343-.26879-.02011-.67341-.57671-.70858-.91771C111.88831,35.15677,111.95213,34.19262,111.95213,33.11152Z"/><path d="M21.50767,37.71591v-2.487h4.58861c.05142.08985.11065.14683.11511.20782.21831,2.98348.21779,2.98425-2.78716,2.99075-1.17018.00253-2.341.02169-3.51-.01557-.24588-.00783-.48494-.22979-.72715-.35309a2.80316,2.80316,0,0,1,.76037-.32768A14.87131,14.87131,0,0,1,21.50767,37.71591Z"/><path d="M34.5297,35.94343c-.31976-.0261-.63934-.07172-.95933-.07475-1.10121-.01046-2.20307.01035-3.30336-.02356-.18157-.00559-.35652-.226-.53453-.3472.14979-.11267.29982-.32381.44934-.32345,2.76941.00665,5.53957.01372,8.30685.10382a1.14185,1.14185,0,0,1,.7375.85422,1.27337,1.27337,0,0,1-.743.89929,4.91528,4.91528,0,0,1-1.58146.10858c-2.48666.0096-4.97351.02118-7.4599-.00534a4.191,4.191,0,0,1-1.094-.32012,3.63961,3.63961,0,0,1,1.03879-.36406c1.41981-.04133,2.84163-.00847,4.26254-.0218a6.64189,6.64189,0,0,0,.90692-.13Z"/><path d="M109.72585,38.03253a39.42146,39.42146,0,0,1-7.57061.18024C103.02144,37.37186,108.73168,37.292,109.72585,38.03253Z"/><path d="M62.94377,34.04257a4.00528,4.00528,0,0,1-3.88911.08061A5.05544,5.05544,0,0,1,62.94377,34.04257Z"/><path d="M78.73668,35.6153a4.68415,4.68415,0,0,1-3.74041.04218A3.75023,3.75023,0,0,1,78.73668,35.6153Z"/></g></g></svg>