<svg xmlns="http://www.w3.org/2000/svg" viewBox="0 0 128.75 128.76">
  <path d="M50.35 95.08a18.41 18.41 0 0 1 1.59-3q13.55-17.96 27.18-35.82C83.89 50 88.63 43.72 93.47 37.5A5.92 5.92 0 0 1 96 35.81a2.73 2.73 0 0 1 3.27 1c3.14 3.94 6.29 7.86 9.39 11.83 1.77 2.26 1.68 3.69-.07 6q-20.49 26.53-41 53.09a8.75 8.75 0 0 1-1.52 1.58 4.28 4.28 0 0 1-6-.63q-4.41-5.4-8.64-10.95a11.29 11.29 0 0 1-1.08-2.65zM73.6 35.73h8.69a3.4 3.4 0 0 1 3 5.6Q68.15 63.7 51 86.11a7.19 7.19 0 0 1-2.5 2 4.54 4.54 0 0 1-5.67-1.46c-2.69-3.59-5.36-7.2-8-10.8-1.41-1.9-1.43-3.44 0-5.4 2.23-2.93 4.5-5.84 6.75-8.76 5.86-7.64 11.76-15.27 17.56-22.95a7.14 7.14 0 0 1 6.37-3c2.69.05 5.39-.01 8.09-.01zM30.16 66.9a4.08 4.08 0 0 1-3.45-1.56c-2.93-3.85-5.87-7.69-8.78-11.55-1.17-1.56-1.12-2.68 0-4.23 2.88-3.84 5.78-7.66 8.61-11.52a5.47 5.47 0 0 1 4.75-2.32h17.73c3.06 0 4.8 2.66 3.48 5.28a12.61 12.61 0 0 1-1.28 2q-8.28 10.86-16.63 21.66a6.13 6.13 0 0 1-4.43 2.24z"/>
  <path d="M64.38 128.76a64.38 64.38 0 1 1 64.37-64.38 64.46 64.46 0 0 1-64.37 64.38zM64.38 8a56.36 56.36 0 1 0 56.36 56.36A56.42 56.42 0 0 0 64.38 8z"/>
</svg>
