<svg xmlns="http://www.w3.org/2000/svg" viewBox="0 0 92.96 120.72">
  <path d="M47.31 120.72h-1.46c-.29-.18-.58-.37-.87-.54-4-2.4-8.14-4.64-12-7.21-7.67-5-14.6-11-20-18.44-4.12-5.68-7-11.9-7.62-19-.6-6.63-1-13.27-1.53-19.91s-1-13.56-1.52-20.34q-.9-12-1.83-24.07C.31 10 .14 8.78 0 7.55V6.3C11.64 3.69 23.3 1.15 35.26.38a166 166 0 0 1 27 .37 215.13 215.13 0 0 1 24.3 4.12L93 6.31c0 .57 0 1-.07 1.46l-1.38 17.85Q90.63 37.3 89.77 49c-.61 8-1.26 16-1.81 24a39 39 0 0 1-2.61 12.25c-2.91 7.12-7.58 13-13.11 18.18a108.29 108.29 0 0 1-22.47 15.87c-.84.42-1.64.93-2.46 1.42zM23.61 53a2 2 0 0 0 2.6-.59c.61-.69 1.48-1.15 2.16-1.79a2 2 0 0 0 .63-1.11c.07-1.28 0-2.57 0-3.86 0-2.83-.34-3.13-3.23-2.84l-.51.08a24.63 24.63 0 0 0-9.51 4 1.82 1.82 0 0 0-.55 1 1.71 1.71 0 0 1-2.45 1.28c-.26-.09-.59 0-.86 0-.52-.17-1.19-.3-1.46-.68s-.07-1 .06-1.52a7.9 7.9 0 0 1 .62-1.32 1.42 1.42 0 0 1 1.65-1c1.37.24 1.33.24 1.64-1.15a12.87 12.87 0 0 1 3-6.41 4.2 4.2 0 0 1 3.1-1.4c-2.27 2.17-3.85 4.45-3.79 7.66.53-.24 1-.49 1.4-.64a3.54 3.54 0 0 0 2.06-2.09 21.15 21.15 0 0 1 2.82-4 2.73 2.73 0 0 1 2.71-.83 7.34 7.34 0 0 0-3.17 5.4c1.28-.25 2.42-.29 3-1.75A7.3 7.3 0 0 1 27.8 37a6 6 0 0 1 1.86-.64l-2.47 3.84 1.77.3.1-2h16.46v-23c-14.47 0-28.51 2.34-42.47 6l3.24 42.58H29v-7.52c0-.28-.37-.65-.66-.82A6.61 6.61 0 0 0 24 55a14.66 14.66 0 0 0-7.89 3.92 16 16 0 0 0-1.26 1.83c-.3.38-.73.94-1.09.92a10.38 10.38 0 0 1-2.39-.57s-.06-.11-.09-.18c-.26-.65.72-2.61 1.41-2.69a5.24 5.24 0 0 1 1.29.16c.24-1.56.36-3.08.71-4.55a4.24 4.24 0 0 1 2.85-3.48A10.57 10.57 0 0 0 16 56.41a3.41 3.41 0 0 0 2.15-2.17 15.43 15.43 0 0 1 1.93-3.74c.3-.46 1-.64 1.58-.94l.16.25a6.45 6.45 0 0 0-1.7 4.19 1.78 1.78 0 0 0 2.05-1.39 7.5 7.5 0 0 1 1.5-2.22 6.39 6.39 0 0 1 1.64-1zm42.28 24.84c-1 .88-1.84 1.53-2.59 2.28A4.86 4.86 0 0 0 61.77 83c1.8-.29 3.54-.2 4.55-2.16a4.16 4.16 0 0 1 3.41-2l-2.27 3.24c1.53.09 2.65.32 3.8-.44a4.11 4.11 0 0 1 3.47-.35c-.88.61-2.11.38-2.47 1.6 2.28 1.3 3.95 3 4 5.8a8.31 8.31 0 0 1-1.2-1.09c-1.86-1.9-4-3.29-6.78-3a39.7 39.7 0 0 0-13.5 4 1.23 1.23 0 0 0-.58.63c-.43 1.4-.5 1.44-1.84 1-.64-.2-1.49.18-1.91-.68s.32-1.32.46-2c.24-1.12.79-1.39 1.85-1.24a1.31 1.31 0 0 0 1.14-.51 24.39 24.39 0 0 0 .63-3l-7.05 1.79v33.6A4 4 0 0 0 48 118c9.49-5.11 18.37-11.07 25.84-18.94A47.28 47.28 0 0 0 84.3 82.72c1.5-4.09 1.62-8.36 2-12.6.11-1.37.18-2.75.28-4.14H64v1.35c.06 5.29-2.21 9.5-6 13a4.21 4.21 0 0 0-1.2 4.54 3.28 3.28 0 0 0 2.46-1.89 11 11 0 0 1 2.19-3 6.11 6.11 0 0 1 4.44-2.14zm-35-37.41v26.06a16.22 16.22 0 0 0 1.84 7.6 15.55 15.55 0 0 0 17.47 8.06 15.89 15.89 0 0 0 11.94-15.1V40.43zM2.9 19.71a159.13 159.13 0 0 1 87.15 0c.09-.52.15-.75.17-1 .23-3.29.44-6.58.72-9.86.06-.71-.12-1-.81-1.12-3.9-.82-7.78-1.78-11.69-2.55A168.46 168.46 0 0 0 51.49 2a153.23 153.23 0 0 0-24.41 1.15 218.45 218.45 0 0 0-24.32 4.6c-.54.13-.76.34-.7.92.11 1.07.16 2.14.24 3.22.19 2.52.38 5.03.6 7.82zM47.47 38c5.93.6 11.79-.6 17.56.69h22.5c.34 0 .67 0 1.08-.06.34-4.5.67-8.9 1-13.45H47.47zM7.29 77a36.44 36.44 0 0 0 4.31 12 1.48 1.48 0 0 0 1.55.87h32.4v-5.43c-.31 0-.61-.12-.91-.15a16.91 16.91 0 0 1-12.12-6.68 1.87 1.87 0 0 0-1.26-.61H7.29zM64 64.14h21.95c.62 0 .72-.3.76-.83.16-2.39.38-4.77.57-7.15.12-1.65.22-3.29.34-5H64zm-18.45 54.11v-15.19H23.28a110.18 110.18 0 0 0 22.27 15.19z"/>
  <path d="M22.83 27.31a13.22 13.22 0 0 0 1.91-.37 2.08 2.08 0 0 0 1-.74c.9-1.21 1.67-2.54 2.65-3.67a3.05 3.05 0 0 1 2.86-1c-1.29 1.44-2.63 2.69-2.81 4.76 1.24 0 2.43.42 3.51-.77a5.42 5.42 0 0 1 4.15-1.7c-.38.45-.63.73-.87 1L34 26.42c-.34.45-.23.74.24 1.1a17.91 17.91 0 0 1 2.38 2.14 7.43 7.43 0 0 1 .85 1.69l-.23.19a2.24 2.24 0 0 1-.6-.21c-3.18-2.56-6.75-2.78-10.54-1.83A35.79 35.79 0 0 0 15.48 34a2.4 2.4 0 0 0-.88 1.25 2 2 0 0 1-2.84 1.47 1.71 1.71 0 0 0-.87 0 1.6 1.6 0 0 1-1.78-.77 1.63 1.63 0 0 1 .19-1.94 3.21 3.21 0 0 0 .55-1 1.65 1.65 0 0 1 2.28-1.29c1.1.33 1.2.27 1.38-.89a17.11 17.11 0 0 1 2.58-7.18 4.74 4.74 0 0 1 4.23-2.43c-2.58 2.47-4.25 5.21-4 8.92 1.09-.52 2.07-.94 3-1.45.24-.13.35-.53.5-.83.84-1.65 1.56-3.38 2.53-5a4.31 4.31 0 0 1 3.29-2 7.54 7.54 0 0 1 1.05.05c-2.16 1.77-3.59 3.69-3.86 6.4zM59.89 93.39a4 4 0 0 0 3.16-1.54A4.32 4.32 0 0 1 66.92 90l-2.8 2.5.22.45a22.31 22.31 0 0 0 2.44-.61 5.06 5.06 0 0 1 3.13-.34l-2 1.33c1.41 1.18 2.92 2.07 3.08 4.1a2.1 2.1 0 0 1-.54-.22A8.59 8.59 0 0 0 62 95.28c-2.59.75-5.14 1.62-7.69 2.5-.36.13-.59.65-.88 1v.1c-.26.68-1.2.86-2.45.25a1.7 1.7 0 0 1-.58-1.34 2 2 0 0 1 .58-1.27A1.44 1.44 0 0 1 52 96c.81.19 1-.18 1.24-.82a26.4 26.4 0 0 1 1.94-3.87 3.35 3.35 0 0 1 2.83-1.49c-1.3 1.51-2.69 2.8-2.69 4.94a3.17 3.17 0 0 0 2.32-1.51 7.28 7.28 0 0 1 5-3.93 1.13 1.13 0 0 1 .65.09c-1.29 1.14-2.9 2.03-3.4 3.98zM54.26 100.51l-.89 3.11.45.26a4.61 4.61 0 0 0 .92-1.17c.67-1.77 1.44-2.51 2.92-2.56a13.33 13.33 0 0 0-.81 1.2 11.57 11.57 0 0 0-.53 1.31l.24.26a9.59 9.59 0 0 0 1.34-1c.82-.84 1.56-1.78 3-1.8L59.39 102l.15.24 2.85-1 .12.26-.72.9c.83.74 2.09 1.07 2.23 2.56-4-2.51-7.56-.81-11.09.91-.18.09-.42.23-.46.39-.3 1.29-1.23.7-1.92.6-.2 0-.55-.64-.47-.75.34-.48.16-1.49 1.11-1.39.75.08.84-.26 1-.86a8.28 8.28 0 0 1 .75-2.35c.25-.49.82-.81 1.24-1.21zM38.2 72.39a3.68 3.68 0 0 1-2.56-3c0-1-.09-2-.2-3s.11-1.4 1.07-1.54a7.53 7.53 0 0 0 1.41-.47c-.55-1-1.09-1.85-1.59-2.76-.35-.64-.87-.73-1.21-.17a28.45 28.45 0 0 0-1.55 3.19c-.14.3 0 .75-.22 1s-.61.32-.93.47c-.12-.28-.39-.6-.34-.84A12.59 12.59 0 0 1 35 59.5c.2-.24.89-.24 1.27-.11a15.5 15.5 0 0 1 1.91 1c.14-.17.25-.24.27-.33.31-1.73 1.47-2.92 2.55-4.19.2-.24.12-.73.17-1.1l-1 .23-1.08.19c-.09-.69-1.78-.94-.56-2 .49-.43 1-.84 1.49-1.28s1.21-.49 1-1.33a.18.18 0 0 1 0-.1l2.12-1.62 1 2c.07-1.4.28-1.47 1.5-1a6 6 0 0 0 1.86 0v.8l1.67-.09-.47 1.53 1.74.43-1 1.16 1.85.84-1.77 2.15a2.72 2.72 0 0 1 .66.44c.12.14.21.53.13.58-.57.45-1.19.83-1.78 1.25A6.2 6.2 0 0 0 47.21 60c-.1.13.24.89.5 1 1.38.45 2.8.77 4.19 1.15 1.15.31 2.29.67 3.44 1a4.32 4.32 0 0 0 1 0 6.14 6.14 0 0 0 0-1.05.9.9 0 0 0-.38-.49c-1.4-1-1.09-2.5-1.25-3.87a.42.42 0 0 1 .07-.3c.9-.79 1.34-2.16 2.77-2.29.81-.07 1.49-.23 1.73-1.16.07-.25.43-.41.85-.79 0 1.34.25 2.49-1.09 2.91.46.61 1.16 1.15 1.31 1.82a6.72 6.72 0 0 1-.35 2.43c.35.75 1.11 1.68.32 2.86a.6.6 0 0 0-.07.3c-.24 1.62-.81 2-2.39 1.43-.41-.13-.82-.23-1.36-.38a4.35 4.35 0 0 1-1 4.12 1.86 1.86 0 0 0 .1 2.56c.7 1 .83 1.73-.26 2.62a17.74 17.74 0 0 0-1.9 2.43c-.53.61-1.56.74-1.63 1.85 0 .22-.75.4-1.23.64a2.15 2.15 0 0 1 .86-2.63 7.32 7.32 0 0 0 2.5-3 1.2 1.2 0 0 0-.26-1.12 17.58 17.58 0 0 0-2.21-1.23c-.16.27-.28.36-.27.44.21 1.45-.68 2-1.88 2.27-.4.11-.73.51-1.11.74-.58.36-1.18.67-1.76 1-.23.15-.56.34-.6.57-.19.94-.8 1-1.56.9-.21-1.2.59-2.19 2-2.85a12.45 12.45 0 0 0 2.61-1.64 1.35 1.35 0 0 0 .14-2.1 2.07 2.07 0 0 1-.19-.25c-.66-1.55-1.93-1.89-3.49-2.3a50.3 50.3 0 0 0-6.51-.94c-2.47-.32-2.53-.31-1.87 2.08.24.86.22 1.74 1.16 2.27.22.16.06.87.06 1.39zM47.93 43.41c.51-.62 1.14-1.13 2-.79.47.19.81.7 1.21 1.07l-.27.39a4.92 4.92 0 0 1-.82-.43c-.6-.49-1.07-.32-1.31.31a2.51 2.51 0 0 0-.07 1.41 1.15 1.15 0 0 0 .74.72c.26.06.59-.25.87-.38l-.71-.9 1.43-.34v2.31l-1.47.22a1.29 1.29 0 0 1-1.57-1 13.58 13.58 0 0 1 0-2.55zM56 45.28c-.55.5.36 1.62-1 1.66v-4.33h1.83c.78.08 1 .68 1 1.35 0 1-.11 1.91-.17 2.92-.65.25-.72-.21-.7-.75.04-.73-.27-1.01-.96-.85zm-.21-.6a8.74 8.74 0 0 0 1.21-.49.68.68 0 0 0 0-.56 9.36 9.36 0 0 0-1.19-.3zM54.41 47a3.07 3.07 0 0 1-.67-.56.81.81 0 0 0-1.48 0 2.88 2.88 0 0 1-.65.54l-.25-.19c.37-1.27.73-2.55 1.13-3.82 0-.17.33-.4.48-.38a.8.8 0 0 1 .57.41c.4 1.24.75 2.51 1.11 3.76zM35 44.1c-.33-.18-.53-.3-.74-.4a3.22 3.22 0 0 0-.78-.3c-.07 0-.29.32-.28.33a4.07 4.07 0 0 0 .59.51 1.59 1.59 0 0 0 .37.18c.72.28 1.21.71 1 1.57a1.25 1.25 0 0 1-1.39 1c-.87 0-1.33-.43-1.44-1.52l.82.33a7.06 7.06 0 0 0 1 .33c.06 0 .27-.34.26-.35a7.73 7.73 0 0 0-.79-.59 2.82 2.82 0 0 0-.46-.23 1.15 1.15 0 0 1-.66-1.54 1.2 1.2 0 0 1 1.5-.84c.72.13 1.06.58 1 1.52zM39.43 42.66v2.46c0 .49 0 1.11.72 1 .25-.06.51-.62.57-1 .09-.61 0-1.24 0-1.86 0-.25.26-.47.4-.71l.32.15c0 1.06.05 2.13 0 3.19A1.14 1.14 0 0 1 40.19 47c-.74 0-1.35-.21-1.43-1a25.35 25.35 0 0 1-.07-2.89c0-.18.31-.36.48-.53z"/>
  <path d="M48 43.38l-1 .1c-.11 1.14-.21 2.28-.33 3.42h-.57v-3.26c-.36-.37-1.41.07-.91-1h2c.66 0 .76.31.74.82zM59.29 43.49a2.31 2.31 0 0 1-.66-.07 2.19 2.19 0 0 1-.43-.42c.16-.13.32-.36.49-.37h2.27l.19.32-1.11.9V47c-1.22-.18-.63-1-.72-1.54a11.33 11.33 0 0 1-.03-1.97zM42.94 46.92v-3.39a2.85 2.85 0 0 1-.73-.12c-.15-.07-.32-.27-.31-.4a.52.52 0 0 1 .34-.38 20.42 20.42 0 0 1 2.07 0 .54.54 0 0 1 .35.38.58.58 0 0 1-.3.41 1.89 1.89 0 0 1-.6.09c-.09 1.16-.17 2.27-.27 3.38a3.32 3.32 0 0 1-.55.03zM37.31 43.5c-.1 1.17-.19 2.29-.31 3.4h-.57v-3.38a1.88 1.88 0 0 1-.56-.1 2.38 2.38 0 0 1-.46-.39c.15-.14.29-.39.45-.41a14.59 14.59 0 0 1 1.87 0c.17 0 .33.24.49.37a2.19 2.19 0 0 1-.43.43 1.21 1.21 0 0 1-.48.08zM41.7 11.89v-1.84h7.83c.34 0 .66-.39 1-.6-.34-.21-.67-.58-1-.59-1.91-.06-3.82 0-5.73 0-1.61 0-2.37-.81-2.39-2.47s.75-2.49 2.44-2.49h8.8v1.8h-7.84c-.5 0-1.1 0-1 .69 0 .26.63.59 1 .6 1.91.06 3.82 0 5.73 0 .91 0 1.8.08 2.18 1a3.23 3.23 0 0 1-.25 3.27 1.81 1.81 0 0 1-1.25.59c-3.15.06-6.22.04-9.52.04zM28.65 4.57l3.22-.21c1.8-.12 3.6-.29 5.4-.34 2.21-.06 3.1 1.26 2.41 3.4a2.52 2.52 0 0 0 0 1.12c.19 1.07.4 2.13.64 3.34l-2.12.1a1.48 1.48 0 0 1-.12-.27c-.22-2.65-.47-2.86-3.12-2.64l-2.07.15-2.09.14v3.2h-2.21V5.38c0-.24.04-.47.06-.81zm2 1.68v1.32c2.08-.11 4-.2 6-.37.26 0 .5-.43.74-.67-.26-.2-.54-.59-.8-.58-1.89.05-3.84.18-5.92.3zM15.94 10.25V8.59c0-1.45.45-2 1.89-2.26C20 6 22.07 5.6 24.2 5.29c2.29-.34 3.22.48 3.27 2.8v3c0 1.19-.4 1.83-1.51 2-2.52.47-5.05.9-7.59 1.22-1.45.19-2.33-.73-2.39-2.24V10.2zm9.46-.84v-.62c-.06-1.62-.34-1.83-2-1.52-.81.15-1.64.27-2.46.41-3.21.57-3.1 0-2.92 3.72v.1c0 .77.38 1 1.13.91 1.4-.24 2.81-.46 4.21-.67 2.03-.31 2.09-.36 2.04-2.33zM81.15 12.26l-.09 1.56L86.53 15l.31.05c1.56.31 1.56.31 1.19 2L79 15.15c.16-2.74.31-5.45.47-8.24l9.31 2-.12 1.7-7.3-1.52v1.43l7.17 1.55-.16 1.69zM3.75 9.47c2.85-.64 5.57-1.29 8.31-1.88 1.48-.32 2.33.15 2.6 1.33.44 1.86-.13 3.1-1.64 3.46-2 .49-4 1-6.06 1.38-.63.12-.81.38-.74 1 .09.75.12 1.51.18 2.39l-2 .53zm2.37 2.58c1.88-.41 3.71-.78 5.52-1.23.29-.07.48-.54.71-.83-.31-.12-.64-.4-.92-.35-1.56.29-3.1.71-4.66 1-.9.15-.96.6-.65 1.41zM65 10.9l-.12 1.85-6.57-.49-1.87-.13A2.07 2.07 0 0 1 54.33 10a39.51 39.51 0 0 1 .25-4.35A1.57 1.57 0 0 1 56.48 4c2.9.18 5.8.42 8.71.64v1.89c-2.32-.18-4.56-.34-6.79-.54-1.43-.13-1.71.08-1.84 1.52-.25 2.56 0 2.81 2.5 3 1.94.07 3.87.24 5.94.39zM75.54 9.42l.21-3.15 1.94.3c-.16 2.78-.32 5.49-.49 8.3l-2-.34.2-3.38-6.62-1.27-.31 3.52-1.94-.25.47-8.31 2 .27-.16 3z"/>
</svg>
