<svg xmlns="http://www.w3.org/2000/svg" viewBox="0 0 279.66 91.42">
  <path d="M22 90.2H1.02c-.81 0-1-.34-1-1v-2.75Q0 60.12.05 33.76a37.82 37.82 0 0 1 3.51-16.24 27.61 27.61 0 0 1 14.79-14 34.43 34.43 0 0 1 20-2.11 31.41 31.41 0 0 1 15.19 7.24c3.14 2.67 5.19 6.16 7.07 9.77 3 5.69 3.35 11.7 2.46 17.92a28.22 28.22 0 0 1-9.46 17.57 30.41 30.41 0 0 1-13.27 6.58 57.7 57.7 0 0 1-13.55 1.59h-.89v-21h2.55A21.71 21.71 0 0 0 35.14 40a9.27 9.27 0 0 0 6.14-9.14 9.49 9.49 0 0 0-7.08-8.74c-4.34-1.15-10.42.29-11.61 7.68a40 40 0 0 0-.53 6.08Q22 62.46 22 89zM184 48.39a24.46 24.46 0 0 0-7.41-1.48 10.88 10.88 0 0 0-11.26 6.79 13.89 13.89 0 0 0 .27 11.9c1.35 2.88 3.8 4.42 6.72 5.36 4.46 1.44 8.32.28 11.67-2.78a8.69 8.69 0 0 0 2.52-5.54 79.52 79.52 0 0 0 .6-9c.06-15.1 0-30.21 0-45.31 0-1.46-.05-2.92 0-4.39 0-.5.11-1 .17-1.57h18.34c.85 0 1.12.3 1.11 1.08v55.03a36.28 36.28 0 0 1-3.27 16 29.67 29.67 0 0 1-14.15 13.78 33.6 33.6 0 0 1-12.26 3 31.17 31.17 0 0 1-12.58-1.79 28.09 28.09 0 0 1-15.66-12.89 33.21 33.21 0 0 1-4.27-20.1A35 35 0 0 1 149 41.63a28.79 28.79 0 0 1 14.67-12.31A32.52 32.52 0 0 1 178 27.15a49 49 0 0 1 5.61.85.77.77 0 0 1 .45.55 14.78 14.78 0 0 1 0 1.63v18.21zM245.38 67l-7.69-11.49L254 44.29a12.63 12.63 0 0 0-17 2.9A16 16 0 0 0 235.77 66c3.59 6.11 11.62 8.25 18.3 5.1a22.69 22.69 0 0 0 10.45-10.35c.15-.27.28-.55.46-.9.52.22 1 .41 1.45.63l11.84 5.68a8 8 0 0 1 .91.49c.52.34.63.68.26 1.33-1.05 1.87-1.9 3.84-3 5.71a34.86 34.86 0 0 1-18.43 15.55 40.51 40.51 0 0 1-8.44 1.89A27.61 27.61 0 0 1 236 89.61a34 34 0 0 1-8.6-4.83c-5.87-4.28-9.44-10.19-11.49-17a30.19 30.19 0 0 1-1.17-8.73 31.79 31.79 0 0 1 22.16-30.73 32.71 32.71 0 0 1 6.39-1.17 31.49 31.49 0 0 1 14.9 2.17 27.66 27.66 0 0 1 12.57 10c1.46 2 2.78 4.14 4.19 6.2a1 1 0 0 1-.29 1.66c-1.75 1.14-3.5 2.27-5.24 3.44q-10.76 7.29-21.5 14.59c-.87.55-1.7 1.19-2.54 1.79zM70 28.09h17.87v9.05a17.56 17.56 0 0 0 1.33-1.63c2-3.15 5-4.85 8.35-6a33.6 33.6 0 0 1 10-1.41h2.1v18.72c-1.55.09-3.06.15-4.57.27a23.05 23.05 0 0 0-7.57 1.78c-4.72 2-7.2 5.78-7.91 10.68a75.08 75.08 0 0 0-.71 9.6c-.1 6.63 0 13.26 0 19.89v1.09H70zM115.7 28.1h19.84v62h-19.76c-.06-.64-.18-1.31-.18-2 0-8.06.09-16.13.1-24.19V29.2zM126.29 0c5.73.31 11.17 5.64 10.93 10.69-.35 7.22-5.51 12.5-11.92 12.06-7.5-.52-11.44-6.54-11.06-12.63A11.26 11.26 0 0 1 126.29 0z"/>
</svg>
