<svg xmlns="http://www.w3.org/2000/svg" viewBox="0 0 122.11719 81.45117"><title>rayen</title><g id="Layer_2" data-name="Layer 2"><g id="Layer_1-2" data-name="Layer 1"><path d="M81.95667,11.40969c-5.85426,1.932-15.88706,4.82084-17.76018,13.85764s5.97035,20.44818,44.52615,28.02438c0,0,1.64161.533.74367,1.85208S30.40582,40.11,15.8901,58.42941c0,0-4.90488-10.75916,12.22213-17.18907,0,0-3.77894-21.64152,22.74786-27.34213C77.27509,8.22163,84.595,10.539,81.95667,11.40969Z"/><path d="M61.05859,0C27.39063,0,0,18.26953,0,40.72559S27.39063,81.45117,61.05859,81.45117s61.0586-18.26953,61.0586-40.72558S94.72656,0,61.05859,0ZM116.874,40.72559c0,19.51367-25.03906,35.38964-55.81543,35.38964S5.24316,60.23926,5.24316,40.72559,30.28223,5.33594,61.05859,5.33594,116.874,21.21191,116.874,40.72559Z"/></g></g></svg>