<svg xmlns="http://www.w3.org/2000/svg" viewBox="0 0 111.4 121.41">
  <path d="M111.35 32.79c0 7.94.13 15.88 0 23.82A60.34 60.34 0 0 1 99 92.36c-6.39 8.53-14.73 14.71-23.71 20.18a99 99 0 0 1-18.59 8.7 3.27 3.27 0 0 1-2.05 0 100.28 100.28 0 0 1-36.07-21.86 59 59 0 0 1-16-26.65A67 67 0 0 1 0 53.89V8.38a1.84 1.84 0 0 1 1.76-2.07c7.48-1.39 15-2.91 22.46-4.09C29.44 1.41 34.72.94 40 .55a222.2 222.2 0 0 1 30.64 0 229.73 229.73 0 0 1 32.62 4.4c2.19.46 4.37 1 6.56 1.44a1.66 1.66 0 0 1 1.54 1.93v24.51zm-1.52 1.35V9.37c0-1.14-.36-1.57-1.44-1.78C102.6 6.5 96.83 5.14 91 4.27c-6.69-1-13.42-1.85-20.16-2.27-7-.44-14.06-.45-21.09-.37-5.42.06-10.85.35-16.24.89a229 229 0 0 0-30.21 5c-1.33.31-1.79.8-1.79 2.2q.07 22.49 0 45a61.38 61.38 0 0 0 3.55 20.79 58.69 58.69 0 0 0 17.16 25.14 100.9 100.9 0 0 0 32.2 18.85 3.75 3.75 0 0 0 2.41 0c3.37-1.32 6.75-2.66 10-4.21a93.87 93.87 0 0 0 24.8-16.88 57.62 57.62 0 0 0 13.77-20.33 58.3 58.3 0 0 0 4.42-21.6c.05-7.48.01-14.9.01-22.34z"/>
  <path d="M106.27 36.71c0 7.09.22 14.19 0 21.27a55 55 0 0 1-12.85 33.43 70 70 0 0 1-15.21 13.35A95.05 95.05 0 0 1 56.4 116a1.93 1.93 0 0 1-1.25.08 99.89 99.89 0 0 1-26.6-14.71 59.34 59.34 0 0 1-16.44-18.6 56.29 56.29 0 0 1-7-27.43V11.98c0-1 .29-1.42 1.25-1.62a207.24 207.24 0 0 1 29.82-4.53c8.58-.54 17.2-.7 25.8-.66 14.44 0 28.67 2.11 42.78 5.14 1.25.27 1.58.73 1.57 2-.09 8.12 0 16.24 0 24.37zm-.5-.73V12.69c0-1.18-.29-1.76-1.56-2-6.05-1-12.07-2.25-18.14-3.15A208.48 208.48 0 0 0 45.5 5.67a229.53 229.53 0 0 0-38.62 5.1c-1 .23-1.34.63-1.34 1.69v41.59A74.22 74.22 0 0 0 6 62.62a54.63 54.63 0 0 0 8.18 22.58 61.73 61.73 0 0 0 15.44 16.3 97.54 97.54 0 0 0 25.2 13.9 2.79 2.79 0 0 0 1.76 0 87.59 87.59 0 0 0 18.6-9.28c7.47-4.89 14.48-10.28 19.82-17.59a54 54 0 0 0 10.75-30.34c.25-7.4.02-14.81.02-22.19z"/>
  <path d="M65.54 49.84a14.33 14.33 0 0 0-5.35 9c-.55 2.84.35 5.2 1.79 7.5 4.9 7.81 5.1 15.87 1 24-2.39 4.8-5 9.49-7.62 14.41-1.39-3.08-2.56-5.92-3.93-8.66A67.62 67.62 0 0 0 34.8 74.58c-3.47-3-7.29-5.48-11-8.14a1.65 1.65 0 0 1-.8-1.86 51.45 51.45 0 0 1 31.1-40.45 53.46 53.46 0 0 1 18.67-4 1.26 1.26 0 0 0 1.4-1 7.58 7.58 0 0 1 7.34-5.25 8.59 8.59 0 0 1 1.34.25c-.52 1.38-.91 2.62-1.46 3.78a1.43 1.43 0 0 0 .32 1.79c2.56 2.82 5.06 5.7 7.66 8.49a3.9 3.9 0 0 1 1.1 4 4.49 4.49 0 0 0 .64 3c3.09 5.2 6.32 10.31 9.46 15.48.86 1.43 2.05 2.73 1.69 4.67a3.41 3.41 0 0 1-1.66 2.6 21.92 21.92 0 0 0-6.13 4.75 2.22 2.22 0 0 1-1.55.74c-.26 0-.57-.86-.74-1.37a4.36 4.36 0 0 0-3.24-3.26c-.5-.11-1.1.28-1.66.45a4.76 4.76 0 0 0 .59 1.46c.57.62 1.36 1 1.94 1.65a6.3 6.3 0 0 1 .78 1.48l-.3.36c-1.25-.22-2.49-.45-3.74-.64a14.39 14.39 0 0 0-2.26-.21c-1.08 0-1.33-.5-1.37-1.5a3.28 3.28 0 0 0-.8-2.16c-1.79-1.61-3.73-3.08-5.65-4.55a2.77 2.77 0 0 0-1.47-.61 13.24 13.24 0 0 1-9-4.29c-.09-.12-.24-.24-.46-.4z"/>
  <path d="M74.72 15.74a30 30 0 0 1-2.1 2.62 2.3 2.3 0 0 1-1.42.51 53 53 0 0 0-49.39 44.7c-.08.48-.11 1-.18 1.49l-11.38-5.52C15.79 34 43.37 11.39 74.72 15.74zM65.7 51.56a2.19 2.19 0 0 1 1.29 3 4.43 4.43 0 0 0 .93 3.27A40.54 40.54 0 0 1 74 70.37a21 21 0 0 1-1.79 16.37 65.1 65.1 0 0 1-15.91 18.89c1.59-2.76 3.14-5.24 4.46-7.82 2.32-4.54 4.88-9 6-14a21.35 21.35 0 0 0-3.46-17.32c-3.54-5.09-1.57-11.7 2.4-14.93z"/>
</svg>
