<svg xmlns="http://www.w3.org/2000/svg" viewBox="0 0 551.04 145.63">
  <path d="M543.27 50.38c-5.17-4.83-16.67 1.84-19.17-3.53s1.67-7.47 3.34-14.47-7.35-18.91-12.18-15.25-6.66 4.92-20.32 3.95-36.67 7.3-51.25 23.64-18.17 3.91-31.92 18.28S391.85 75.09 389 73.43s-3.08-5.05-3.08-10.38 1-11.33-5.34-20.75-19.8-1.28-32 8.92c-24.41 20.41-15.16-.67-21.16-8.92s-24 7.42-37.5 20.75-18 15.17-21.17 13-3.83-2.17-2.83-15.24-7.67-20.93-20.67-14-32.31 34.41-40.65 34.1-6.33-7.36-3.33-14.69 1.67-22.34-3.67-18.67-11 3.33-17 1-18.66-3-29 9.67-18 13-21.33 6.33-6.33-7.67-33.33-16.33 3-23.34 18.66-30.67c15.26-7.14 32.38-2.44 32.59-2.42 12.87 1.67 11.28-4.83-3.09-12.75-15.41-8.5-60.91 6.75-79.5 29.5-21.09 25.82 4.84 26 27.67 33.17s19.67 17 10 29.33C94 106.23 63.94 122.05 37.1 128.55s-48.5.33-30.5 12 49.17.5 66.67-6.17 35.5-22 40.17-25.5 11.66-7.33 15.5.17 9.16 11.33 18.16 8.33 16.5-13.5 20.5-17.83 9.17-9.17 17.17.67 15.17 6 26.83-5.34c7.22-7 18.34-21.16 23.67-22.5s7.83 3.84 7.67 9.65-3.34 16.85 6.33 22.35 15.17-2 28.5-14.66S299.44 70.63 304.6 71s3.67 3.93 2.84 7.26-6 15.65-1.5 20.82 8.5 3.83 12.62.5 10.38-11.17 17-17.52 15.17-17.65 21.84-16.81 10 5 9.83 19 10.17 20 23.67 14.6 17.81-19.48 26.66-18.94c10.84.67 6.93 12.13 18.5 17.34 7.35 3.3 15.84 1.16 22-3.34s23.34-24.16 30.67-16.16 11.33 10.16 19.5 9.5 31.67-16.17 39.33-20.5.88-11.53-4.29-16.37zm-369.5 33.5c-9.67 11.67-27.17 19.67-29.33 10s4.87-20.36 17.83-30.5c9.17-7.16 17.84-6 20.17-1.5 2.94 5.67 1 10.34-8.67 22zm302.67-17.62c-11.6 9.74-29.55 20.56-33.13 13.13-4.3-8.92 4-20.25 17-30.38 9.17-7.17 22.63-12.88 28.38-6.71 4.36 4.7.25 13.46-12.25 23.96z"/>
</svg>
