<svg xmlns="http://www.w3.org/2000/svg" viewBox="0 0 90 80.28467"><title>seat</title><g id="Layer_2" data-name="Layer 2"><g id="Layer_1-2" data-name="Layer 1"><path d="M51.38192,0c.869.04528,1.73776.0985,2.60719.13457,7.02786.29159,14.05667.56171,21.08342.878q4.40226.19816,8.796.56659a15.40833,15.40833,0,0,1,3.25253.683,2.517,2.517,0,0,1,1.7266,2.34765c.195,1.94056.37918,3.88359.50161,5.82975.22755,3.617.40758,7.23707.60587,10.85593a2.26018,2.26018,0,0,1-.02907.27442c-.2812.01261-.56925.04868-.8549.0349-4.90538-.23655-9.80964-.49734-14.71576-.71716-13.48183-.604-26.971-.71242-40.46287-.52025A58.04467,58.04467,0,0,0,27.483,20.772a9.68739,9.68739,0,0,0-2.6949,1.11835,6.21264,6.21264,0,0,0-.93559.66684l.163.26232L89.99436,35.05684V44.7039L.18439,29.18533c0-1.41629-.03109-2.82741.00607-4.23672C.286,21.32548.34283,17.6991.55534,14.08226a26.88616,26.88616,0,0,1,.82472-5.18868c.94816-3.628,3.50728-5.71988,6.98123-6.81674A29.69288,29.69288,0,0,1,15.9675.9213C22.54374.61259,29.12308.3696,35.701.09607A1.64557,1.64557,0,0,0,36.05656,0Z"/><path d="M.06533,57.104c2.15088.11848,4.22417.251,6.29924.34324,4.47793.19909,8.95549.42177,13.43558.55346q8.84241.25994,17.68854.38707c7.35283.09866,14.7066.13121,22.06006.17506a7.91092,7.91092,0,0,0,4.59865-1.19824,14.542,14.542,0,0,0,1.453-1.27559l-.10674-.22529c-.7079-.11855-1.41606-.2356-2.12368-.35587q-8.96649-1.524-17.93291-3.04853-10.0758-1.70911-20.15234-3.41395Q16.9213,47.62,8.56188,46.17129,4.53938,45.48143.51314,44.81361C.15563,44.755-.00154,44.65042,0,44.2558c.01321-3.34795.00615-6.696.00733-10.044a2.2791,2.2791,0,0,1,.047-.30214c1.63873.3,3.25742.59432,4.8753.893q10.11036,1.86662,20.22,3.73747c4.90743.91289,9.81,1.852,14.71708,2.76673q11.87835,2.21436,23.7596,4.413,8.49829,1.5807,16.99481,3.171c2.86449.53353,5.72833,1.071,8.59708,1.58073.5881.10449.80406.32929.78.96391-.18837,4.97184-.3232,9.9457-.50578,14.91778a18.20855,18.20855,0,0,1-1.20807,6.21562,9.32738,9.32738,0,0,1-6.775,5.69357,44.444,44.444,0,0,1-7.608,1.15557q-14.712,1.01739-29.46491.84414c-6.77513-.07363-13.55165-.21652-20.322-.47468-5.89217-.22466-11.77765-.63641-17.66327-1.01a17.23151,17.23151,0,0,1-3.08931-.54867,2.79231,2.79231,0,0,1-2.20165-2.6874C.97185,73.40617.78316,71.26988.6587,69.13032.43576,65.29814.26026,61.4632.06628,57.62934.05883,57.48209.06533,57.33414.06533,57.104Z"/></g></g></svg>