<svg xmlns="http://www.w3.org/2000/svg" viewBox="0 0 122 84.96875"><title>swm</title><g id="Layer_2" data-name="Layer 2"><g id="Layer_1-2" data-name="Layer 1"><path d="M29.94149,33.10675a3.29415,3.29415,0,0,1,3.29,3.16261l.00307.00173a7.50772,7.50772,0,0,0,8.47526-.21678v-1.059a4.98905,4.98905,0,0,0-4.989-4.989H21.74282a4.989,4.989,0,0,0-4.989,4.989v4.55234c0,3.01306,1.72491,3.952,3.01306,4.69428s6.52826,1.048,8.7553,1.048a3.29692,3.29692,0,1,1-3.29,3.43121l-.00307-.00172a7.50769,7.50769,0,0,0-8.47526.21678v1.03708a4.98906,4.98906,0,0,0,4.989,4.989H36.72088a4.98907,4.98907,0,0,0,4.989-4.989V45.44287c0-3.01306-1.72491-3.95195-3.01306-4.69428s-6.52826-1.048-8.75531-1.048a3.29691,3.29691,0,1,1,0-6.59382Z"/><path d="M70.8907,30.00637h-1.703a2.5218,2.5218,0,0,0-2.52181,2.5218V45.48041a1.93,1.93,0,0,1-1.50346,1.90925,1.90169,1.90169,0,0,1-2.29562-1.85947v-13.002a2.5218,2.5218,0,0,0-2.5218-2.5218H58.642a2.5218,2.5218,0,0,0-2.5218,2.5218V45.48041a1.93,1.93,0,0,1-1.50345,1.90925,1.9017,1.9017,0,0,1-2.29563-1.85947v-13.002a2.5218,2.5218,0,0,0-2.5218-2.5218h-1.703a2.5218,2.5218,0,0,0-2.5218,2.5218V52.457a2.50543,2.50543,0,0,0,2.50543,2.50543h7.02451a4.38885,4.38885,0,1,1,8.77769,0h7.025A2.50543,2.50543,0,0,0,73.4125,52.457V32.52817A2.5218,2.5218,0,0,0,70.8907,30.00637Z"/><path d="M79.92989,54.96238h1.703a2.5218,2.5218,0,0,0,2.5218-2.5218V39.48834a1.93,1.93,0,0,1,1.50345-1.90925,1.9017,1.9017,0,0,1,2.29563,1.85947v13.002a2.5218,2.5218,0,0,0,2.5218,2.5218h1.703a2.5218,2.5218,0,0,0,2.5218-2.5218V39.48834a1.93,1.93,0,0,1,1.50345-1.90925,1.9017,1.9017,0,0,1,2.29563,1.85947v13.002a2.5218,2.5218,0,0,0,2.5218,2.5218h1.703a2.5218,2.5218,0,0,0,2.5218-2.5218V32.5118a2.50542,2.50542,0,0,0-2.50542-2.50543H95.71622a4.38885,4.38885,0,1,1-8.77769,0h-7.025a2.50543,2.50543,0,0,0-2.50543,2.50543V52.44058A2.5218,2.5218,0,0,0,79.92989,54.96238Z"/><rect x="57.95419" y="51.69823" width="3.07856" height="3.07856"/><path d="M61,0C27.36426,0,0,19.05859,0,42.48438S27.36426,84.96875,61,84.96875s61-19.05859,61-42.48437S94.63574,0,61,0Zm0,79.99805c-30.89453,0-56.0293-16.82813-56.0293-37.51367S30.10547,4.9707,61,4.9707s56.0293,16.82813,56.0293,37.51368S91.89453,79.99805,61,79.99805Z"/></g></g></svg>