<svg xmlns="http://www.w3.org/2000/svg" viewBox="0 0 143.5 49.82991"><title>UAZ</title><g id="Layer_2" data-name="Layer 2"><g id="Layer_1-2" data-name="Layer 1"><path d="M141.82964.35462c-1.03.25248-2.04739.561-3.06148.872q-8.42075,2.58392-16.83731,5.18036Q114.28132,8.75948,106.6318,11.107q-7.30467,2.23153-14.616,4.44007c-.74823.22739-.7382.22363-1.16624-.40422a22.14571,22.14571,0,0,0-36.65836-.00877.44548.44548,0,0,1-.58772.222c-2.14605-.6383-4.29795-1.25653-6.44567-1.889q-11.67117-3.43665-23.3415-6.87914Q13.56717,3.55823,3.32224.51263A6.878,6.878,0,0,0,.89446.00684C.52661.03192.17214.10423.03587.465c-.1371.362.14714.61907.37454.86444a.488.488,0,0,0,.12623.087c.43891.23115.86779.48823,1.32174.6872Q8.20749,4.88,14.56245,7.64048q8.30286,3.62162,16.60323,7.25074,6.45444,2.82218,12.90471,5.65271,3.16389,1.38631,6.332,2.7647c.23241.10074.31936.19521.2784.47569-.13042.88534-.26418,1.77528-.30849,2.6673a22.01247,22.01247,0,0,0,1.988,10.38162c.01254.02842.02926.061.04263.08945a22.18434,22.18434,0,0,0,42.08828-12.2593c-.03177-.24454.07942-.3064.25582-.38791q5.17533-2.39079,10.3465-4.78911Q116.623,14.148,128.1533,8.8109q6.89711-3.19274,13.79422-6.38548C142.55781,2.14285,143.5,1.71224,143.5.7651,143.5.09767,142.42823.20748,141.82964.35462ZM56.44422,13.07206A20.76121,20.76121,0,0,1,68.319,6.34633a21.15665,21.15665,0,0,1,19.83359,6.28515,39.43448,39.43448,0,0,1,2.5465,3.16557.34742.34742,0,0,1-.01254.52794c-.28843.32061-.5501.66463-.8519,1.03415-4.05634-6.19236-9.67351-9.7103-17.09732-9.76548-7.41711-.056-13.11287,3.30476-17.23275,9.46911-.38623-.41132-.77-.821-1.22058-1.30125C55.00712,14.85528,55.67509,13.9181,56.44422,13.07206Zm4.32219,15.26728c-.89787,1.46177-1.8108,2.91434-2.68611,4.38949a5.65834,5.65834,0,0,0-.61112,1.43711.98516.98516,0,0,0,1.05337,1.34682c.84271-.01171,1.68541-.115,2.5256-.19479q3.84232-.36555,7.6838-.74364c1.58007-.15383,3.16013-.30431,4.73936-.46733a1.54677,1.54677,0,0,0,.4665-.16386q8.02824-3.71817,16.05313-7.43885c.13878-.06437.27923-.12457.4757-.21235.0209.17891.04681.32145.05267.46483A17.9908,17.9908,0,0,1,57.17657,36.92269a17.6713,17.6713,0,0,1-2.549-11.47428c.00752-.06187.0234-.1229.04263-.22238,2.1101.90122,4.20014,1.79325,6.33281,2.70408C60.91522,28.08268,60.845,28.2131,60.76641,28.33934Zm.933-.21235a.6295.6295,0,0,1,.47151-.204c3.26463-.00377,6.52843.00752,9.79306.015.25917.00084.51917,0,.77917,0,.005.03512.01086.07065.01672.10576q-7.257,3.27738-14.514,6.5556l-.12791-.07315a4.72621,4.72621,0,0,1,.321-.971Q60.0416,30.824,61.69941,28.127ZM87.08162,17.01721c-1.13447.34945-2.22965.688-3.3265,1.02411-3.26213.99988-6.52342,2.00351-9.79056,2.98875a1.50622,1.50622,0,0,1-.81093.01631q-7.30718-2.13-14.60432-4.29043c-.09782-.02884-.194-.06312-.36534-.12a18.03247,18.03247,0,0,1,28.89765.38122ZM.66957.57533l.01756-.168A5.96415,5.96415,0,0,1,1.72044.51973q4.16586,1.19571,8.32168,2.427,18.17453,5.35905,36.3482,10.72271c2.34168.691,4.685,1.379,7.02419,2.08042a1.19809,1.19809,0,0,1,.50244.31518c.4038.428.78837.8753,1.16624,1.32759a.39137.39137,0,0,0,.45981.14421q.96936-.23388,1.95126-.41508a1.41343,1.41343,0,0,1,.632.01672q7.43509,2.18075,14.86516,4.3782c.17891.05267.32521.09573.32354.3436-.0117,1.69042-.0092,3.38126-.01254,5.0721a.70327.70327,0,0,1-.041.13209Q36.9626,13.81884.66957.57533Zm71.89133,47.004A19.91562,19.91562,0,0,1,54.9302,36.92269a19.34731,19.34731,0,0,1-2.05241-12.98078c.05016-.25708.13209-.50746.22823-.86862.36785.67884.68888,1.24357.97647,1.8246a.95429.95429,0,0,1,.0209.48823,18.3496,18.3496,0,0,0,2.4445,11.53657,18.52127,18.52127,0,0,0,34.478-10.52206A1.36381,1.36381,0,0,1,91.168,25.751c.28508-.58144.60611-1.14617.91209-1.71717.04348.00209.08528.00418.12791.00585.107.64917.265,1.29415.31184,1.94791a19.78124,19.78124,0,0,1-2.31911,10.93506h.01672A19.956,19.956,0,0,1,72.5609,47.57936Zm1.22058-19.95147v-.41382c0-1.75521.00334-3.51-.00418-5.26522-.00084-.23074.03762-.36366.29344-.44141,4.41582-1.34431,8.82746-2.70367,13.2458-4.04213a2.02374,2.02374,0,0,1,.826.00627c.58354.079,1.16039.20441,1.74392.27547.14045.01672.29762-.10576.44727-.16553a.05847.05847,0,0,0,.02424-.02843,4.53665,4.53665,0,0,1,2.88007-1.9337q21.58294-6.556,43.13914-13.1948c1.67537-.5129,3.34155-1.05129,5.01859-1.55582a1.98161,1.98161,0,0,1,1.55248.06688Q108.40248,14.2684,73.78148,27.62789Z"/></g></g></svg>