<svg xmlns="http://www.w3.org/2000/svg" viewBox="0 0 125.25 125.28">
  <path d="M100.1 12.36l2.77-3.1c-2.31-1.5-4.63-3.09-7.05-4.52-1.2-.71-2-1.41-1.38-3.07h29.18v29.17c-1.44.6-2.29.08-3.06-1.27-1.42-2.46-3-4.81-4.68-7.39L113 25.34c11 15.6 14.79 32.86 10.52 51.59a60.29 60.29 0 0 1-24.62 36.72c-25.67 18.26-61.13 14.65-82-8.2-21.69-23.7-22.6-58.95-2.14-83.22a62.75 62.75 0 0 1 85.34-9.87zM17 74.12c4 18.08 22.06 37 48.22 35.6 24.93-1.31 40-20.73 42.88-35.6zm91.16-22.92c-3.74-17.81-22-37.33-48.73-35.61A45.77 45.77 0 0 0 28.51 30.1a46.1 46.1 0 0 0-11.62 21.1zM47 69.09a39.09 39.09 0 0 0 4.77-1.15 5.58 5.58 0 0 0 .08-10.42 11.61 11.61 0 0 0-9.7.08 5.57 5.57 0 0 0 .09 10.26A38.53 38.53 0 0 0 47 69.09zm51.82 0a35.61 35.61 0 0 0 4.76-1.09 5.6 5.6 0 0 0 .19-10.52 11.72 11.72 0 0 0-9.53 0 5.57 5.57 0 0 0 0 10.34 35.51 35.51 0 0 0 4.55 1.26zm-17.3-10.67c-.66-.76-1-1.52-1.39-1.53-3.27-.1-6.55-.09-9.82 0-.33 0-.65.6-1 .92.31.26.67.79.92.75 1.7-.3 2.24.85 2.84 2a32.41 32.41 0 0 1 2.23 4.13c1.14 3.31 3.25 4.31 6.55 3.86 1.34-.18 2.26-.38 2.86-1.7.82-1.79 1.86-3.49 2.78-5.24S89 57.83 92 58.33c-.38-.78-.78-1.43-1.21-1.45-2.3-.11-4.6-.05-6.9-.05l-.34.72 2.24 1.62-3.59 6.65-3.91-7.13zm-55.33.16a6.61 6.61 0 0 0 1.88 0c.38-.15.65-.61 1-.93-.32-.26-.64-.74-1-.75H17.48l-.36.58c.39.39.83 1.15 1.16 1.1 1.59-.2 2.15.78 2.73 1.93.67 1.34 1.43 2.63 2.16 3.94 2.35 4.23 2.35 4.28 7.11 4a3.17 3.17 0 0 0 2.15-1.32c1.21-1.88 2.22-3.91 3.25-5.91.83-1.6 1.46-3.38 4.17-2.73-.25-.78-.58-1.55-.94-1.57-2.37-.11-4.74-.06-7.1-.06l-.32.75 2.27 1.56-3.62 6.69zm32.49 8a3.6 3.6 0 0 0-1.15.12 12.8 12.8 0 0 0-1.41.94c.51.27 1 .75 1.52.79 1.43.11 2.87 0 4.3 0h10.19v-5.7c-.73.42-1.37.56-1.6.95-1.74 2.94-2.65 3.38-6.19 2.7v-7.67a4 4 0 0 0 1.3-.16 7.37 7.37 0 0 0 1.2-.92c-.44-.27-.88-.76-1.34-.77-3-.07-6.11 0-9.2 0-.68 2.59 1.64 1.3 2.38 2.15z"/>
  <path d="M44.14 62.7a11.89 11.89 0 0 1 .36-2c.45-1.28 1.27-2.57 2.73-2.15a4.09 4.09 0 0 1 2.37 2.31 6.19 6.19 0 0 1-.11 3.92A3.55 3.55 0 0 1 47 66.84c-.87 0-1.81-1.29-2.5-2.18-.37-.47-.26-1.29-.36-1.96zM96.13 62.53c.13-.61.07-1.5.48-2 .66-.83 1.68-2 2.44-1.93a3.6 3.6 0 0 1 2.48 2.1 6.71 6.71 0 0 1-.06 4.11 3.5 3.5 0 0 1-2.52 2c-.87 0-1.8-1.3-2.48-2.2-.35-.44-.23-1.27-.34-2.08z"/>
</svg>
