<svg xmlns="http://www.w3.org/2000/svg" viewBox="0 0 111.67 94.96">
  <path d="M55.81 95h-37a42.12 42.12 0 0 1-5.74-.27c-5.58-.8-8.46-3.42-9.62-9A178.2 178.2 0 0 1 .24 40.79C.7 31 1.78 21.28 3.06 11.58 4.15 3.31 7.29.64 15.63.17 20.87-.12 26.14.05 31.39.05h60.92c11.06 0 15.2 1.88 16.93 14.05a233.9 233.9 0 0 1 .29 65.21c-.28 2-.63 4-1.09 6-1.52 6.49-4.77 9.33-11.41 9.56-6.16.22-12.33.11-18.49.12C71 95 63.39 95 55.81 95zm0-5.14v-.09c10.5 0 21 .18 31.5 0 7.66-.17 11-3.41 12-10.88a240.89 240.89 0 0 0 0-62.51C98.42 9 95.45 5.73 88.2 5.63c-21.5-.29-43-.14-64.51-.16a6.79 6.79 0 0 0-.89.12c-6.49.83-9.41 3.66-10.27 10.25a240.26 240.26 0 0 0-.41 60.39c1.35 11 4.15 13.49 15.21 13.57 9.49.06 18.98.01 28.47.01z"/>
  <path d="M57.86 79.07H29.68a22.9 22.9 0 0 1-4.22-.35c-3.88-.78-5.07-2-5.65-6a38.44 38.44 0 0 1-.81-7.79 6.22 6.22 0 0 1 2.36-4.07C30.2 54.46 39.15 48.26 48 42c1.16-.81 2.33-1.61 3.41-2.51 2.63-2.19 2.3-4.52-.91-5.61-4.67-1.58-9.41-3-14.13-4.44-5.15-1.63-10.37-3.18-15.53-4.91a2.68 2.68 0 0 1-1.4-2.08c.1-5.31 1.25-6.39 6.46-6.4h53.94c1.62 0 3.24 0 4.85.11 5.32.46 6.83 2 7.37 7.26 1.07 10.66 2.42 7.83-6.56 14.31-8.1 5.84-16.29 11.54-24.36 17.42-1.07.79-2.34 2.42-2.2 3.47S60.74 61 62 61.38c9.09 3 18.17 6.08 27.42 8.54 3.38.9 2.73 2.62 2.6 4.81-.14 2.52-.86 4.38-3.84 4.33h-3q-13.67.03-27.32.01z"/>
</svg>
